<?xml version="1.0" encoding="UTF-8" standalone="no"?>
<!-- Created with Inkscape (http://www.inkscape.org/) -->

<svg
   width="1280"
   height="640"
   viewBox="0 0 338.66666 169.33333"
   version="1.1"
   id="svg1"
   inkscape:export-filename="repo-card.png"
   inkscape:export-xdpi="96"
   inkscape:export-ydpi="96"
   inkscape:version="1.3 (0e150ed, 2023-07-21)"
   sodipodi:docname="repo-card.svg"
   xmlns:inkscape="http://www.inkscape.org/namespaces/inkscape"
   xmlns:sodipodi="http://sodipodi.sourceforge.net/DTD/sodipodi-0.dtd"
   xmlns:xlink="http://www.w3.org/1999/xlink"
   xmlns="http://www.w3.org/2000/svg"
   xmlns:svg="http://www.w3.org/2000/svg">
  <sodipodi:namedview
     id="namedview1"
     pagecolor="#ffffff"
     bordercolor="#000000"
     borderopacity="0.25"
     inkscape:showpageshadow="2"
     inkscape:pageopacity="0.0"
     inkscape:pagecheckerboard="0"
     inkscape:deskcolor="#d1d1d1"
     inkscape:document-units="px"
     inkscape:zoom="0.92737795"
     inkscape:cx="753.19885"
     inkscape:cy="404.36588"
     inkscape:window-width="2192"
     inkscape:window-height="1288"
     inkscape:window-x="303"
     inkscape:window-y="78"
     inkscape:window-maximized="0"
     inkscape:current-layer="layer1" />
  <defs
     id="defs1">
    <linearGradient
       id="linearGradient4"
       inkscape:collect="always">
      <stop
         style="stop-color:#006e50;stop-opacity:1;"
         offset="0"
         id="stop4" />
      <stop
         style="stop-color:#32a082;stop-opacity:0.35361215;"
         offset="1"
         id="stop5" />
    </linearGradient>
    <linearGradient
       inkscape:collect="always"
       xlink:href="#linearGradient9"
       id="linearGradient10"
       x1="79.599426"
       y1="50.783863"
       x2="213.12103"
       y2="223.10663"
       gradientUnits="userSpaceOnUse"
       gradientTransform="matrix(2.1403802,0,0,1.0720894,-120.61684,-60.565698)" />
    <linearGradient
       id="linearGradient9"
       inkscape:collect="always">
      <stop
         style="stop-color:#d03a94;stop-opacity:1;"
         offset="0"
         id="stop9" />
      <stop
         style="stop-color:#b63abf;stop-opacity:1;"
         offset="1"
         id="stop10" />
    </linearGradient>
    <filter
       inkscape:collect="always"
       style="color-interpolation-filters:sRGB"
       id="filter10"
       x="-0.10549182"
       y="-0.10549182"
       width="1.2109836"
       height="1.2109836">
      <feGaussianBlur
         inkscape:collect="always"
         stdDeviation="3.0097089"
         id="feGaussianBlur10" />
    </filter>
    <filter
       inkscape:collect="always"
       style="color-interpolation-filters:sRGB"
       id="filter11"
       x="-0.78464991"
       y="-0.78464991"
       width="2.5692998"
       height="2.5692998">
      <feGaussianBlur
         inkscape:collect="always"
         stdDeviation="13.058654"
         id="feGaussianBlur11" />
    </filter>
    <linearGradient
       inkscape:collect="always"
       xlink:href="#linearGradient4"
       id="linearGradient5"
       x1="231.09509"
       y1="174.31989"
       x2="96.432281"
       y2="0.5706057"
       gradientUnits="userSpaceOnUse"
       gradientTransform="matrix(1.0487423,0,0,1.0487423,-11.392192,-2.4937015)" />
    <filter
       inkscape:collect="always"
       style="color-interpolation-filters:sRGB"
       id="filter5"
       x="-0.056300235"
       y="-0.11229959"
       width="1.1126005"
       height="1.2245992">
      <feGaussianBlur
         inkscape:collect="always"
         stdDeviation="7.9658794"
         id="feGaussianBlur5" />
    </filter>
    <filter
       inkscape:collect="always"
       style="color-interpolation-filters:sRGB"
       id="filter6"
       x="-0.32068931"
       y="-1.5580076"
       width="1.6413786"
       height="4.1160153">
      <feGaussianBlur
         inkscape:collect="always"
         stdDeviation="9.4565621"
         id="feGaussianBlur6" />
    </filter>
    <filter
       inkscape:collect="always"
       style="color-interpolation-filters:sRGB"
       id="filter7"
       x="-0.043692064"
       y="-0.26460524"
       width="1.0873841"
       height="1.5292105">
      <feGaussianBlur
         inkscape:collect="always"
         stdDeviation="3.0683035"
         id="feGaussianBlur7" />
    </filter>
  </defs>
  <g
     inkscape:label="Layer 1"
     inkscape:groupmode="layer"
     id="layer1">
    <rect
       style="fill:url(#linearGradient10);fill-opacity:1;stroke-width:1.51482;stroke-linecap:round;stroke-linejoin:round"
       id="rect1"
       width="339.52472"
       height="170.06363"
       x="-0.42902961"
       y="-0.36514959"
       ry="0" />
    <circle
       style="opacity:0.493261;mix-blend-mode:normal;fill:#ffffff;fill-opacity:1;stroke-width:1;stroke-linecap:round;stroke-linejoin:round;filter:url(#filter11)"
       id="path11"
       cx="176.60231"
       cy="102.99423"
       r="19.97118"
       transform="matrix(1.0150951,0,0,1.0150951,-84.947204,-49.754316)" />
    <g
       id="g11"
       transform="matrix(1.0005428,0,0,1.0005428,-60.161511,-50.873526)">
      <circle
         style="opacity:0.493261;fill:#000000;stroke-width:1;stroke-linecap:round;stroke-linejoin:round;filter:url(#filter10)"
         id="circle10"
         cx="135.46666"
         cy="135.46666"
         r="34.236309" />
      <circle
         style="fill:#000000;stroke-width:1;stroke-linecap:round;stroke-linejoin:round"
         id="path1"
         cx="135.46666"
         cy="135.46666"
         r="34.236309" />
      <circle
         style="fill:#ffffff;fill-opacity:1;stroke-width:1;stroke-linecap:round;stroke-linejoin:round"
         id="path2"
         cx="138.60498"
         cy="128.33411"
         r="24.821325" />
      <circle
         style="fill:#000000;fill-opacity:1;stroke-width:0.5;stroke-linecap:round;stroke-linejoin:round"
         id="circle11"
         cx="132.32832"
         cy="137.17848"
         r="12.410663" />
    </g>
    <g
       id="g7">
      <path
         style="-inkscape-font-specification:'Helvetica Neue Bold Condensed';opacity:0.5;stroke-width:4.63784;stroke-linecap:round;stroke-linejoin:round;filter:url(#filter7)"
         d="m 133.3942,80.369524 h -5.03632 v 0.887861 q 0,3.030976 1.81867,4.653623 1.85365,1.622641 6.12054,1.622641 4.092,0 6.36535,-1.561414 2.30832,-1.592026 2.30832,-5.051624 0,-1.010326 -0.20986,-1.836955 -0.20985,-0.82663 -0.76943,-1.50018 -0.52462,-0.704166 -1.43396,-1.285869 -0.90933,-0.612318 -2.34328,-1.163404 l -3.88217,-1.469564 q -1.60882,-0.581702 -2.09847,-1.255252 -0.48964,-0.704166 -0.48964,-1.714491 0,-0.489856 0.10496,-0.949094 0.13989,-0.459239 0.45466,-0.796014 0.34975,-0.367391 0.90934,-0.581702 0.55959,-0.214311 1.39898,-0.214311 1.46892,0 2.09846,0.857245 0.62954,0.82663 0.62954,2.388042 h 4.82648 v -0.612319 q 0,-1.561412 -0.59456,-2.663584 -0.5596,-1.132789 -1.60883,-1.836955 -1.01425,-0.734782 -2.44822,-1.040941 -1.39897,-0.336775 -3.07774,-0.336775 -3.60237,0 -5.66587,1.592027 -2.06349,1.592028 -2.06349,4.837314 0,1.347101 0.38472,2.388042 0.38472,1.010325 1.18913,1.806339 0.83939,0.765397 2.06349,1.3471 1.22411,0.581702 2.90289,1.071557 1.25907,0.36739 2.09846,0.734782 0.87437,0.336775 1.39898,0.765397 0.52462,0.428623 0.73446,0.97971 0.24482,0.520471 0.24482,1.255252 0,1.377717 -0.9443,2.051266 -0.90934,0.642935 -2.0635,0.642935 -0.97929,0 -1.6438,-0.244928 -0.62954,-0.244927 -1.01426,-0.67355 -0.38472,-0.428623 -0.52462,-1.040941 -0.1399,-0.642934 -0.1399,-1.408332 z m 23.01317,-3.704525 h 4.61663 q 0,-2.939128 -1.71376,-4.653619 -1.67877,-1.714491 -5.03632,-1.714491 -1.67877,0 -3.07774,0.398007 -1.39898,0.398007 -2.41325,1.408332 -1.01426,0.979709 -1.57384,2.663583 -0.55959,1.65326 -0.55959,4.194381 0,2.479889 0.45466,4.163764 0.45467,1.653263 1.32903,2.66358 0.90933,0.979713 2.23837,1.377724 1.364,0.367389 3.18267,0.367389 3.84719,0 5.491,-1.683877 1.67877,-1.714491 1.67877,-4.959778 h -4.61663 q 0,2.02065 -0.55959,2.939128 -0.5596,0.918475 -1.7837,0.918475 -0.80441,0 -1.32903,-0.306157 -0.48964,-0.336775 -0.76943,-1.040941 -0.27981,-0.704166 -0.38472,-1.775723 -0.10496,-1.102172 -0.10496,-2.632968 0,-1.438948 0.10496,-2.479889 0.10495,-1.071557 0.38472,-1.745108 0.27979,-0.704166 0.83938,-1.04094 0.55959,-0.367392 1.43395,-0.367392 0.6995,0 1.11919,0.30616 0.41969,0.275544 0.62954,0.765398 0.24482,0.459238 0.31476,1.040941 0.10496,0.581702 0.10496,1.194021 z m 16.19315,0.428623 h -4.9314 v -0.642935 q 0,-0.581702 0.10496,-1.163405 0.1399,-0.581702 0.41969,-1.04094 0.2798,-0.489856 0.73446,-0.765399 0.48964,-0.306159 1.22411,-0.306159 0.73447,0 1.18913,0.275543 0.48965,0.244928 0.73447,0.765398 0.27979,0.489855 0.38472,1.224637 0.10495,0.704166 0.13989,1.65326 z m -4.9314,2.510504 h 9.54802 v -0.949093 q 0,-1.898187 -0.27979,-3.428982 -0.27979,-1.561412 -1.04923,-2.632969 -0.76944,-1.102173 -2.13344,-1.683876 -1.32904,-0.612317 -3.4275,-0.612317 -2.44822,0 -3.91714,0.704166 -1.46892,0.704166 -2.27333,1.898186 -0.76944,1.194021 -1.04925,2.724816 -0.24481,1.530796 -0.24481,3.184056 0,1.561411 0.1399,3.122823 0.17487,1.561411 0.87435,2.816661 0.6995,1.255251 2.16842,2.020652 1.46893,0.7654 4.09202,0.7654 3.46246,0 5.07129,-1.500178 1.60882,-1.500187 1.74872,-4.378078 h -4.33683 q -0.20985,1.561411 -0.76944,2.326809 -0.55958,0.765395 -1.7837,0.765395 -0.66451,0 -1.11918,-0.306157 -0.45467,-0.336775 -0.73446,-0.857245 -0.27979,-0.551087 -0.41969,-1.224636 -0.10496,-0.704166 -0.10496,-1.438948 z m 12.06616,-8.878615 v 16.471362 h 4.82648 V 76.266992 q 0,-2.724816 2.55313,-2.724816 1.08422,0 1.57386,0.520469 0.48963,0.489856 0.48963,1.775724 v 11.358504 h 4.82649 v -12.21575 q 0,-2.479889 -1.25909,-3.582061 -1.22411,-1.102173 -3.53241,-1.102173 -1.57386,0 -2.79796,0.581702 -1.22411,0.551086 -1.99354,1.775723 h -0.0699 v -1.928803 z m 26.54555,6.368111 h -4.9314 v -0.642935 q 0,-0.581702 0.10496,-1.163405 0.1399,-0.581702 0.41969,-1.04094 0.2798,-0.489856 0.73447,-0.765399 0.48964,-0.306159 1.2241,-0.306159 0.73447,0 1.18914,0.275543 0.48963,0.244928 0.73446,0.765398 0.27979,0.489855 0.38472,1.224637 0.10495,0.704166 0.13989,1.65326 z m -4.9314,2.510504 h 9.54803 v -0.949093 q 0,-1.898187 -0.27979,-3.428982 -0.27979,-1.561412 -1.04923,-2.632969 -0.76944,-1.102173 -2.13345,-1.683876 -1.32903,-0.612317 -3.42749,-0.612317 -2.44822,0 -3.91714,0.704166 -1.46893,0.704166 -2.27334,1.898186 -0.76944,1.194021 -1.04924,2.724816 -0.24482,1.530796 -0.24482,3.184056 0,1.561411 0.1399,3.122823 0.17487,1.561411 0.87436,2.816661 0.69949,1.255251 2.16842,2.020652 1.46892,0.7654 4.09201,0.7654 3.46247,0 5.07129,-1.500178 1.60883,-1.500187 1.74873,-4.378078 h -4.33684 q -0.20984,1.561411 -0.76944,2.326809 -0.55959,0.765395 -1.78369,0.765395 -0.66451,0 -1.11918,-0.306157 -0.45468,-0.336775 -0.73447,-0.857245 -0.27979,-0.551087 -0.41969,-1.224636 -0.10496,-0.704166 -0.10496,-1.438948 z M 221.94936,65.33711 v 21.859763 h 5.03632 v -9.490934 h 8.39387 v -3.612677 h -8.39387 v -5.143474 h 8.91849 V 65.33711 Z m 19.55068,13.624082 q 0,-1.255253 0.07,-2.32681 0.0699,-1.071556 0.31476,-1.836954 0.2798,-0.765398 0.80441,-1.194021 0.52463,-0.428623 1.39898,-0.428623 1.46894,0 2.02853,1.347101 0.55958,1.3471 0.55958,4.439307 0,3.092207 -0.55958,4.439307 -0.55959,1.347098 -2.02853,1.347098 -0.87435,0 -1.39898,-0.428621 -0.52461,-0.428622 -0.80441,-1.19402 -0.24482,-0.765397 -0.31476,-1.836955 -0.07,-1.071556 -0.07,-2.326809 z m -4.82647,0 q 0,2.143114 0.34974,3.796373 0.34974,1.622644 1.18913,2.724818 0.83939,1.071553 2.27334,1.592028 1.43396,0.489851 3.60237,0.459238 2.06349,0 3.46247,-0.520475 1.43396,-0.520465 2.30832,-1.592027 0.87436,-1.102171 1.25908,-2.724814 0.38471,-1.622643 0.38471,-3.735141 0,-2.17373 -0.34973,-3.796373 -0.34975,-1.622643 -1.18913,-2.724817 -0.8394,-1.102173 -2.27335,-1.622643 -1.43395,-0.551086 -3.60237,-0.52047 -2.06349,0 -3.49745,0.581702 -1.39897,0.551086 -2.27333,1.653259 -0.87436,1.071557 -1.25908,2.694201 -0.38472,1.622643 -0.38472,3.735141 z m 17.41726,-8.235681 v 16.471362 h 4.82647 v -9.888941 q 0,-0.826629 0.31477,-1.377716 0.31478,-0.581702 0.83939,-0.918477 0.52462,-0.367391 1.15416,-0.520471 0.62954,-0.153079 1.25908,-0.153079 0.38472,0 0.73446,0.03061 0.38472,0 0.76944,0.03061 v -4.0413 q -0.20984,-0.03061 -0.45466,-0.03061 -0.20985,-0.03061 -0.4197,-0.03061 -1.5039,0 -2.55313,0.734781 -1.04924,0.704166 -1.7837,1.898187 h -0.0699 v -2.204346 z m 16.0882,8.756151 q 0,-1.653259 0.0699,-2.786048 0.10496,-1.163404 0.38472,-1.836954 0.27979,-0.704166 0.76944,-1.010325 0.48964,-0.306159 1.29405,-0.306159 1.43395,0 1.95857,1.255252 0.5596,1.255252 0.5596,4.255611 0,1.040942 -0.13991,1.928803 -0.10496,0.857246 -0.41969,1.469564 -0.27979,0.612319 -0.80441,0.979709 -0.48964,0.336775 -1.25908,0.336775 -0.76944,0 -1.25908,-0.336775 -0.45467,-0.36739 -0.73446,-0.949094 -0.24483,-0.612318 -0.34975,-1.377715 -0.0699,-0.765398 -0.0699,-1.622644 z m 9.65294,-8.756151 h -4.61662 v 1.836955 h -0.0699 q -0.69948,-1.285868 -1.7837,-1.775723 -1.0842,-0.489854 -2.09846,-0.489854 -1.95857,0 -3.1477,0.765397 -1.15416,0.765398 -1.7837,1.990034 -0.59457,1.194022 -0.80441,2.694201 -0.17488,1.50018 -0.17488,2.939128 0,4.500538 1.43396,6.429346 1.46892,1.898179 4.33683,1.898179 1.15416,0 2.20339,-0.551087 1.0842,-0.551079 1.81867,-1.469565 h 0.0699 v 2.173738 q 0,1.224629 -0.59457,2.051266 -0.59457,0.826627 -2.06349,0.826627 -0.45466,0 -0.87437,-0.122463 -0.38472,-0.122463 -0.73445,-0.336776 -0.73447,-0.459238 -0.73447,-1.255252 h -4.61663 q 0,2.112493 1.6438,3.245282 1.67877,1.163411 4.75653,1.163411 4.2319,0 6.0156,-1.592027 1.81867,-1.592027 1.81867,-4.776081 z m 12.45085,6.368111 h -4.9314 v -0.642935 q 0,-0.581702 0.10496,-1.163405 0.13989,-0.581702 0.4197,-1.04094 0.27979,-0.489856 0.73445,-0.765399 0.48965,-0.306159 1.22412,-0.306159 0.73445,0 1.18913,0.275543 0.48964,0.244928 0.73446,0.765398 0.2798,0.489855 0.38471,1.224637 0.10496,0.704166 0.13991,1.65326 z m -4.9314,2.510504 h 9.54802 v -0.949093 q 0,-1.898187 -0.2798,-3.428982 -0.27979,-1.561412 -1.04923,-2.632969 -0.76944,-1.102173 -2.13345,-1.683876 -1.32902,-0.612317 -3.42749,-0.612317 -2.44821,0 -3.91714,0.704166 -1.46893,0.704166 -2.27334,1.898186 -0.76944,1.194021 -1.04923,2.724816 -0.24483,1.530796 -0.24483,3.184056 0,1.561411 0.1399,3.122823 0.17488,1.561411 0.87437,2.816661 0.69949,1.255251 2.16841,2.020652 1.46893,0.7654 4.09201,0.7654 3.46247,0 5.07131,-1.500178 1.60882,-1.500187 1.74871,-4.378078 h -4.33682 q -0.20985,1.561411 -0.76944,2.326809 -0.5596,0.765395 -1.7837,0.765395 -0.66452,0 -1.11919,-0.306157 -0.45466,-0.336775 -0.73446,-0.857245 -0.2798,-0.551087 -0.4197,-1.224636 -0.10495,-0.704166 -0.10495,-1.438948 z"
         id="text2"
         aria-label="Scene Forge" />
      <path
         style="-inkscape-font-specification:'Helvetica Neue Bold Condensed';fill:#ffffff;stroke-width:4.63784;stroke-linecap:round;stroke-linejoin:round"
         d="m 124.80588,84.203281 h -4.71206 v 0.948958 q 0,3.239547 1.70158,4.97385 1.7343,1.734303 5.72647,1.734303 3.82855,0 5.95553,-1.668857 2.1597,-1.701581 2.1597,-5.399246 0,-1.079849 -0.19634,-1.963362 -0.19633,-0.883512 -0.7199,-1.603412 -0.49084,-0.752622 -1.34163,-1.374353 -0.85079,-0.654454 -2.19242,-1.243463 l -3.63222,-1.570689 q -1.50524,-0.621731 -1.96336,-1.341631 -0.45812,-0.752622 -0.45812,-1.832471 0,-0.523563 0.0982,-1.014403 0.13089,-0.490841 0.42539,-0.850791 0.32723,-0.392672 0.85079,-0.621731 0.52357,-0.229059 1.30891,-0.229059 1.37436,0 1.96336,0.916236 0.58901,0.883513 0.58901,2.55237 h 4.51574 v -0.654454 q 0,-1.668857 -0.55629,-2.846874 -0.52356,-1.21074 -1.50524,-1.963362 -0.94896,-0.785345 -2.29059,-1.112572 -1.30891,-0.35995 -2.8796,-0.35995 -3.37044,0 -5.30108,1.701581 -1.93064,1.70158 -1.93064,5.170186 0,1.439799 0.35995,2.55237 0.35995,1.079849 1.11257,1.930639 0.78535,0.818068 1.93064,1.439799 1.1453,0.621731 2.71599,1.145295 1.17801,0.392672 1.96336,0.785344 0.81807,0.35995 1.30891,0.818068 0.49084,0.458118 0.68717,1.047126 0.22906,0.556286 0.22906,1.341631 0,1.472521 -0.88351,2.192421 -0.85079,0.687176 -1.93064,0.687176 -0.91623,0 -1.53797,-0.261781 -0.589,-0.261782 -0.94895,-0.7199 -0.35995,-0.458117 -0.49084,-1.112571 -0.1309,-0.687177 -0.1309,-1.505245 z m 21.53151,-3.959447 h 4.3194 q 0,-3.141379 -1.60342,-4.97385 -1.57068,-1.832471 -4.71206,-1.832471 -1.57069,0 -2.8796,0.425395 -1.30891,0.425395 -2.25787,1.505244 -0.94896,1.047127 -1.47252,2.846875 -0.52356,1.767026 -0.52356,4.48301 0,2.650538 0.42539,4.450287 0.4254,1.767025 1.24347,2.846874 0.85079,1.047127 2.09425,1.472522 1.27618,0.392672 2.97776,0.392672 3.5995,0 5.13747,-1.799748 1.57069,-1.832471 1.57069,-5.301077 h -4.3194 q 0,2.159698 -0.52356,3.141379 -0.52357,0.981681 -1.66886,0.981681 -0.75262,0 -1.24346,-0.327227 -0.45812,-0.35995 -0.7199,-1.112572 -0.26178,-0.752622 -0.35995,-1.897917 -0.0982,-1.178017 -0.0982,-2.814152 0,-1.537966 0.0982,-2.650538 0.0982,-1.145295 0.35995,-1.865194 0.26178,-0.752622 0.78534,-1.112572 0.52357,-0.392672 1.34163,-0.392672 0.65446,0 1.04713,0.327227 0.39267,0.294504 0.58901,0.818067 0.22906,0.490841 0.2945,1.112572 0.0982,0.621731 0.0982,1.276185 z m 15.15059,0.458118 h -4.6139 v -0.687177 q 0,-0.621731 0.0982,-1.243462 0.13089,-0.621731 0.39267,-1.112572 0.26178,-0.523563 0.68718,-0.818067 0.45811,-0.327227 1.14529,-0.327227 0.68718,0 1.11257,0.294504 0.45812,0.261782 0.68718,0.818067 0.26178,0.523564 0.35995,1.308908 0.0982,0.752622 0.13089,1.767026 z m -4.6139,2.683261 h 8.9333 V 82.37081 q 0,-2.028808 -0.26179,-3.664942 -0.26178,-1.668858 -0.98168,-2.814153 -0.7199,-1.178017 -1.99608,-1.799748 -1.24346,-0.654454 -3.20683,-0.654454 -2.29058,0 -3.66494,0.752622 -1.37435,0.752622 -2.12697,2.028807 -0.7199,1.276186 -0.98168,2.912321 -0.22906,1.636134 -0.22906,3.40316 0,1.668858 0.13089,3.337715 0.16361,1.668858 0.81807,3.010489 0.65445,1.34163 2.0288,2.159698 1.37436,0.818067 3.82856,0.818067 3.23955,0 4.74479,-1.603412 1.50524,-1.603412 1.63613,-4.679346 h -4.05761 q -0.19634,1.668858 -0.7199,2.486925 -0.52356,0.818068 -1.66886,0.818068 -0.62173,0 -1.04712,-0.327227 -0.4254,-0.35995 -0.68718,-0.916236 -0.26178,-0.589008 -0.39267,-1.308908 -0.0982,-0.752622 -0.0982,-1.537967 z m 11.28931,-9.489582 v 17.604812 h 4.51573 V 79.818439 q 0,-2.91232 2.38876,-2.91232 1.0144,0 1.47252,0.556286 0.45811,0.523563 0.45811,1.897916 v 12.140122 h 4.51574 V 78.444086 q 0,-2.650539 -1.17802,-3.828556 -1.14529,-1.178017 -3.30499,-1.178017 -1.47252,0 -2.61782,0.621731 -1.14529,0.589009 -1.86519,1.897917 h -0.0654 v -2.06153 z m 24.83647,6.806321 h -4.61391 v -0.687177 q 0,-0.621731 0.0982,-1.243462 0.13089,-0.621731 0.39268,-1.112572 0.26178,-0.523563 0.68717,-0.818067 0.45812,-0.327227 1.1453,-0.327227 0.68717,0 1.11257,0.294504 0.45812,0.261782 0.68717,0.818067 0.26179,0.523564 0.35995,1.308908 0.0982,0.752622 0.1309,1.767026 z m -4.61391,2.683261 h 8.9333 V 82.37081 q 0,-2.028808 -0.26178,-3.664942 -0.26178,-1.668858 -0.98168,-2.814153 -0.7199,-1.178017 -1.99609,-1.799748 -1.24346,-0.654454 -3.20682,-0.654454 -2.29059,0 -3.66494,0.752622 -1.37436,0.752622 -2.12698,2.028807 -0.7199,1.276186 -0.98168,2.912321 -0.22906,1.636134 -0.22906,3.40316 0,1.668858 0.13089,3.337715 0.16362,1.668858 0.81807,3.010489 0.65445,1.34163 2.02881,2.159698 1.37435,0.818067 3.82855,0.818067 3.23955,0 4.74479,-1.603412 1.50525,-1.603412 1.63614,-4.679346 h -4.05761 q -0.19634,1.668858 -0.7199,2.486925 -0.52357,0.818068 -1.66886,0.818068 -0.62173,0 -1.04713,-0.327227 -0.42539,-0.35995 -0.68717,-0.916236 -0.26179,-0.589008 -0.39268,-1.308908 -0.0982,-0.752622 -0.0982,-1.537967 z M 207.6596,68.136436 v 23.364007 h 4.71206 V 81.356406 h 7.85345 v -3.861278 h -7.85345 v -5.497414 h 8.34429 v -3.861278 z m 18.29195,14.561601 q 0,-1.341631 0.0654,-2.486925 0.0654,-1.145295 0.2945,-1.963362 0.26179,-0.818068 0.75263,-1.276186 0.49084,-0.458117 1.3089,-0.458117 1.37436,0 1.89792,1.439798 0.52356,1.439799 0.52356,4.744792 0,3.304992 -0.52356,4.744791 -0.52356,1.439799 -1.89792,1.439799 -0.81806,0 -1.3089,-0.458118 -0.49084,-0.458118 -0.75263,-1.276185 -0.22905,-0.818068 -0.2945,-1.963362 -0.0654,-1.145295 -0.0654,-2.486925 z m -4.51574,0 q 0,2.290589 0.32723,4.057614 0.32723,1.734303 1.11257,2.91232 0.78535,1.145295 2.12698,1.701581 1.34163,0.523563 3.37043,0.49084 1.93064,0 3.23955,-0.556286 1.34163,-0.556286 2.1597,-1.70158 0.81807,-1.178017 1.17802,-2.91232 0.35995,-1.734303 0.35995,-3.992169 0,-2.323312 -0.32723,-4.057615 -0.32723,-1.734303 -1.11257,-2.91232 -0.78535,-1.178017 -2.12698,-1.734303 -1.34163,-0.589009 -3.37044,-0.556286 -1.93063,0 -3.27227,0.621731 -1.3089,0.589009 -2.12697,1.767026 -0.81807,1.145294 -1.17802,2.879598 -0.35995,1.734303 -0.35995,3.992169 z m 16.29589,-8.802406 v 17.604812 h 4.51573 V 80.931011 q 0,-0.883513 0.29451,-1.472521 0.2945,-0.621732 0.78534,-0.981681 0.49084,-0.392673 1.07985,-0.556286 0.58901,-0.163614 1.17802,-0.163614 0.35995,0 0.68717,0.03272 0.35995,0 0.7199,0.03272 v -4.319397 q -0.19633,-0.03272 -0.42539,-0.03272 -0.19634,-0.03272 -0.39267,-0.03272 -1.40708,0 -2.38876,0.785345 -0.98168,0.752622 -1.66886,2.028807 h -0.0654 v -2.356034 z m 15.05239,9.358692 q 0,-1.767026 0.0654,-2.977766 0.0982,-1.243463 0.35995,-1.963362 0.26179,-0.752622 0.7199,-1.079849 0.45812,-0.327227 1.21074,-0.327227 1.34163,0 1.83247,1.341631 0.52357,1.34163 0.52357,4.548455 0,1.112572 -0.13089,2.06153 -0.0982,0.916235 -0.39268,1.570689 -0.26178,0.654454 -0.75262,1.047127 -0.45812,0.359949 -1.17801,0.359949 -0.7199,0 -1.17802,-0.359949 -0.4254,-0.392673 -0.68718,-1.014404 -0.22906,-0.654454 -0.32723,-1.472521 -0.0654,-0.818068 -0.0654,-1.734303 z m 9.03146,-9.358692 h -4.31939 v 1.963362 h -0.0654 q -0.65445,-1.374354 -1.66886,-1.897917 -1.0144,-0.523563 -1.96336,-0.523563 -1.83247,0 -2.94504,0.818068 -1.07985,0.818067 -1.66886,2.126975 -0.55628,1.276185 -0.75262,2.879597 -0.16361,1.603413 -0.16361,3.141379 0,4.810237 1.34163,6.871767 1.37435,2.028807 4.05761,2.028807 1.07985,0 2.06153,-0.589008 1.01441,-0.589009 1.70158,-1.57069 h 0.0654 v 2.323312 q 0,1.308908 -0.55629,2.192421 -0.55628,0.883512 -1.93064,0.883512 -0.42539,0 -0.81806,-0.13089 -0.35995,-0.130891 -0.68718,-0.35995 -0.68718,-0.490841 -0.68718,-1.341631 h -4.31939 q 0,2.257867 1.53796,3.468606 1.57069,1.243463 4.45029,1.243463 3.95945,0 5.6283,-1.70158 1.70158,-1.701581 1.70158,-5.104741 z m 11.64922,6.806321 h -4.6139 v -0.687177 q 0,-0.621731 0.0982,-1.243462 0.13089,-0.621731 0.39267,-1.112572 0.26178,-0.523563 0.68717,-0.818067 0.45812,-0.327227 1.1453,-0.327227 0.68718,0 1.11257,0.294504 0.45812,0.261782 0.68718,0.818067 0.26178,0.523564 0.35995,1.308908 0.0982,0.752622 0.13089,1.767026 z m -4.6139,2.683261 h 8.93329 V 82.37081 q 0,-2.028808 -0.26178,-3.664942 -0.26178,-1.668858 -0.98168,-2.814153 -0.7199,-1.178017 -1.99608,-1.799748 -1.24347,-0.654454 -3.20683,-0.654454 -2.29059,0 -3.66494,0.752622 -1.37435,0.752622 -2.12698,2.028807 -0.71989,1.276186 -0.98168,2.912321 -0.22906,1.636134 -0.22906,3.40316 0,1.668858 0.1309,3.337715 0.16361,1.668858 0.81806,3.010489 0.65446,1.34163 2.02881,2.159698 1.37435,0.818067 3.82856,0.818067 3.23954,0 4.74479,-1.603412 1.50524,-1.603412 1.63613,-4.679346 h -4.05761 q -0.19634,1.668858 -0.7199,2.486925 -0.52357,0.818068 -1.66886,0.818068 -0.62173,0 -1.04713,-0.327227 -0.42539,-0.35995 -0.68717,-0.916236 -0.26178,-0.589008 -0.39267,-1.308908 -0.0982,-0.752622 -0.0982,-1.537967 z"
         id="text1"
         transform="scale(1.0688134,0.93561701)"
         aria-label="Scene Forge" />
      <path
         style="-inkscape-font-specification:'Helvetica Light';fill:#ffffff;stroke-width:2.01406;stroke-linecap:round;stroke-linejoin:round"
         d="m 141.9193,110.7135 v -10.23142 h 0.85262 v 3.89363 q 0.51157,-0.53999 1.05156,-0.88104 0.55421,-0.34105 1.32156,-0.34105 0.6821,0 1.26472,0.24158 0.58262,0.22736 0.98051,0.80998 0.26999,0.39789 0.31263,0.8242 0.0568,0.4121 0.0568,0.86683 v 4.81729 h -0.85262 v -4.80308 q 0,-0.99472 -0.44052,-1.49208 -0.44052,-0.49736 -1.46366,-0.49736 -0.39789,0 -0.72473,0.12789 -0.32683,0.11368 -0.59683,0.31263 -0.25579,0.19894 -0.44052,0.45473 -0.18473,0.25578 -0.28421,0.53999 -0.12789,0.35526 -0.15631,0.68209 -0.0284,0.32684 -0.0284,0.71052 v 3.96467 z m 10.4872,0.0284 q -0.15631,0.0284 -0.4121,0.0995 -0.25578,0.0711 -0.56841,0.0711 -0.63946,0 -0.98051,-0.31263 -0.32684,-0.32684 -0.32684,-1.15104 v -5.3857 h -1.03735 v -0.71051 h 1.03735 v -2.04629 h 0.85262 v 2.04629 h 1.3784 v 0.71051 h -1.3784 v 5.04466 q 0,0.26999 0.0142,0.46894 0.0142,0.19894 0.0853,0.32683 0.0711,0.1279 0.21316,0.18474 0.15631,0.0568 0.42631,0.0568 0.17052,0 0.34104,-0.0284 0.18474,-0.0284 0.35526,-0.071 z m 3.95046,0 q -0.15631,0.0284 -0.4121,0.0995 -0.25578,0.0711 -0.56841,0.0711 -0.63946,0 -0.98051,-0.31263 -0.32684,-0.32684 -0.32684,-1.15104 v -5.3857 h -1.03735 v -0.71051 h 1.03735 v -2.04629 h 0.85262 v 2.04629 h 1.3784 v 0.71051 h -1.3784 v 5.04466 q 0,0.26999 0.0142,0.46894 0.0142,0.19894 0.0853,0.32683 0.0711,0.1279 0.21316,0.18474 0.15631,0.0568 0.42631,0.0568 0.17052,0 0.34105,-0.0284 0.18473,-0.0284 0.35525,-0.071 z m 2.31628,-3.68047 q 0,0.62526 0.17052,1.19367 0.17053,0.5542 0.48315,0.98051 0.32684,0.4121 0.78157,0.66788 0.46894,0.24158 1.05156,0.24158 0.65368,0 1.13683,-0.25579 0.49736,-0.26999 0.80998,-0.72472 0.31263,-0.45473 0.45473,-1.05156 0.14211,-0.61105 0.11369,-1.30735 0,-0.69631 -0.19895,-1.22209 -0.18473,-0.53999 -0.52578,-0.90946 -0.34105,-0.36946 -0.79578,-0.5542 -0.45473,-0.19894 -0.99472,-0.19894 -0.59683,0 -1.06577,0.24157 -0.46894,0.24158 -0.78157,0.66789 -0.31262,0.4121 -0.48315,0.99472 -0.15631,0.56841 -0.15631,1.23629 z m 0,6.55095 h -0.85262 v -10.25983 h 0.85262 v 1.29313 h 0.0284 q 0.18474,-0.35525 0.46894,-0.63946 0.29842,-0.28421 0.63946,-0.46894 0.35526,-0.18473 0.72473,-0.28421 0.36947,-0.0995 0.72473,-0.0995 0.89524,0 1.5205,0.29842 0.62525,0.29841 1.02314,0.82419 0.4121,0.51158 0.59683,1.22209 0.18474,0.71052 0.18474,1.5205 0,0.76736 -0.19895,1.47787 -0.19894,0.71052 -0.61104,1.25051 -0.39789,0.52578 -1.02314,0.85262 -0.61105,0.31263 -1.44945,0.31263 -0.78157,0 -1.5063,-0.34105 -0.71051,-0.35526 -1.12261,-1.03735 z m 8.22774,-5.20097 q 0.19894,0.95209 0.71051,1.34998 0.52578,0.38368 1.49208,0.38368 0.46894,0 0.80999,-0.11368 0.34105,-0.11369 0.5542,-0.29842 0.22737,-0.19894 0.34105,-0.44052 0.11368,-0.24157 0.11368,-0.51157 0,-0.53999 -0.35525,-0.79578 -0.34105,-0.26999 -0.86683,-0.4121 -0.52578,-0.15631 -1.13683,-0.25578 -0.61104,-0.11368 -1.13682,-0.32684 -0.52578,-0.21315 -0.88104,-0.61104 -0.34105,-0.39789 -0.34105,-1.12261 0,-0.92367 0.66789,-1.5063 0.68209,-0.59683 1.91839,-0.59683 1.19366,0 1.9326,0.53999 0.75314,0.52578 0.90946,1.77629 h -0.86683 q -0.11368,-0.85262 -0.65367,-1.19367 -0.52579,-0.35525 -1.33577,-0.35525 -0.80999,0 -1.2363,0.35525 -0.42631,0.34105 -0.42631,0.90946 0,0.49736 0.34105,0.76736 0.35526,0.25579 0.88104,0.42631 0.52578,0.15631 1.13682,0.28421 0.61104,0.12789 1.13683,0.36946 0.52578,0.22737 0.86682,0.62526 0.35526,0.39788 0.35526,1.1084 0,0.52578 -0.22736,0.93788 -0.22737,0.39789 -0.62526,0.66788 -0.39788,0.27 -0.95209,0.39789 -0.53999,0.14211 -1.19366,0.14211 -0.65368,0 -1.16525,-0.19895 -0.49736,-0.18473 -0.85261,-0.52578 -0.35526,-0.34105 -0.55421,-0.79578 -0.19894,-0.45473 -0.22736,-0.98051 z m 7.03407,2.30207 v -1.25051 h 1.03735 v 1.25051 z m 0,-5.74096 v -1.25051 h 1.03735 v 1.25051 z m 3.25416,7.01989 h -0.79578 l 3.33942,-11.78034 h 0.79578 z m 3.95046,0 h -0.79578 l 3.33942,-11.78034 h 0.79578 z m 4.71782,-3.581 q 0.19894,0.95209 0.71051,1.34998 0.52578,0.38368 1.49208,0.38368 0.46894,0 0.80999,-0.11368 0.34105,-0.11369 0.5542,-0.29842 0.22737,-0.19894 0.34105,-0.44052 0.11368,-0.24157 0.11368,-0.51157 0,-0.53999 -0.35526,-0.79578 -0.34104,-0.26999 -0.86682,-0.4121 -0.52579,-0.15631 -1.13683,-0.25578 -0.61104,-0.11368 -1.13682,-0.32684 -0.52578,-0.21315 -0.88104,-0.61104 -0.34105,-0.39789 -0.34105,-1.12261 0,-0.92367 0.66789,-1.5063 0.68209,-0.59683 1.91839,-0.59683 1.19366,0 1.9326,0.53999 0.75314,0.52578 0.90946,1.77629 h -0.86683 q -0.11368,-0.85262 -0.65368,-1.19367 -0.52578,-0.35525 -1.33576,-0.35525 -0.80999,0 -1.2363,0.35525 -0.42631,0.34105 -0.42631,0.90946 0,0.49736 0.34105,0.76736 0.35526,0.25579 0.88104,0.42631 0.52578,0.15631 1.13682,0.28421 0.61104,0.12789 1.13682,0.36946 0.52579,0.22737 0.86683,0.62526 0.35526,0.39788 0.35526,1.1084 0,0.52578 -0.22736,0.93788 -0.22737,0.39789 -0.62526,0.66788 -0.39789,0.27 -0.95209,0.39789 -0.53999,0.14211 -1.19366,0.14211 -0.65368,0 -1.16525,-0.19895 -0.49736,-0.18473 -0.85262,-0.52578 -0.35525,-0.34105 -0.5542,-0.79578 -0.19894,-0.45473 -0.22736,-0.98051 z m 11.82294,-2.74259 q -0.22736,-0.82419 -0.78157,-1.27892 -0.5542,-0.46894 -1.40681,-0.46894 -0.65368,0 -1.12262,0.26999 -0.46894,0.27 -0.76735,0.72473 -0.29842,0.44052 -0.44052,1.00893 -0.14211,0.5542 -0.14211,1.12261 0,0.58263 0.1279,1.13683 0.1421,0.5542 0.44051,0.99472 0.29842,0.44052 0.76736,0.71051 0.46894,0.25579 1.13683,0.25579 0.95209,0 1.5205,-0.52578 0.58262,-0.52578 0.73893,-1.44945 h 0.90946 q -0.11368,0.61104 -0.36947,1.12261 -0.24157,0.49736 -0.63946,0.86683 -0.38368,0.35526 -0.92367,0.5542 -0.53999,0.19895 -1.23629,0.19895 -0.88104,0 -1.52051,-0.29842 -0.63946,-0.29842 -1.05156,-0.80999 -0.4121,-0.52578 -0.61104,-1.23629 -0.19895,-0.71052 -0.19895,-1.52051 0,-0.76735 0.21316,-1.46366 0.22736,-0.71051 0.65367,-1.2505 0.42631,-0.54 1.05156,-0.85262 0.63947,-0.32684 1.46367,-0.32684 1.27892,0 2.06049,0.61104 0.79578,0.61105 0.99472,1.90418 z m 8.0146,0.85262 q 0,-0.53999 -0.15631,-1.00893 -0.1421,-0.48315 -0.44052,-0.8242 -0.2842,-0.35525 -0.72472,-0.5542 -0.44052,-0.21315 -1.00893,-0.21315 -0.56842,0 -1.00894,0.21315 -0.42631,0.21316 -0.73893,0.56841 -0.29842,0.35526 -0.48315,0.8242 -0.18474,0.46894 -0.24158,0.99472 z m -4.80308,0.71052 q 0,0.59683 0.15632,1.13682 0.15631,0.52578 0.45473,0.92367 0.31262,0.38368 0.78156,0.62525 0.46894,0.22737 1.07999,0.22737 0.8384,0 1.43524,-0.44052 0.59683,-0.44052 0.79577,-1.25051 h 0.95209 q -0.15631,0.52578 -0.4121,0.98051 -0.25578,0.44052 -0.63946,0.78157 -0.38368,0.32684 -0.90946,0.51157 -0.52578,0.18474 -1.22208,0.18474 -0.88104,0 -1.52051,-0.29842 -0.63946,-0.29842 -1.05156,-0.80999 -0.4121,-0.52578 -0.61104,-1.22208 -0.19895,-0.71052 -0.19895,-1.52051 0,-0.80998 0.22737,-1.5205 0.24157,-0.71051 0.66788,-1.23629 0.44052,-0.54 1.06578,-0.83841 0.62525,-0.31263 1.42103,-0.31263 1.5205,0 2.38733,1.05156 0.86682,1.03736 0.85261,3.0268 z m 8.22776,3.48152 h -0.85261 v -7.36093 h 0.85261 v 1.02314 q 0.51158,-0.53999 1.05157,-0.88104 0.5542,-0.34105 1.32155,-0.34105 0.6821,0 1.26472,0.24158 0.58262,0.22736 0.98051,0.80998 0.27,0.39789 0.31263,0.8242 0.0568,0.4121 0.0568,0.86683 v 4.81729 h -0.85262 v -4.80308 q 0,-0.99472 -0.44052,-1.49208 -0.44052,-0.49736 -1.46366,-0.49736 -0.39789,0 -0.72472,0.12789 -0.32684,0.11368 -0.59684,0.31263 -0.25578,0.19894 -0.44052,0.45473 -0.18473,0.25578 -0.2842,0.53999 -0.12789,0.35526 -0.15631,0.68209 -0.0284,0.32684 -0.0284,0.71052 z m 12.37717,-4.19204 q 0,-0.53999 -0.15631,-1.00893 -0.1421,-0.48315 -0.44052,-0.8242 -0.2842,-0.35525 -0.72472,-0.5542 -0.44052,-0.21315 -1.00894,-0.21315 -0.56841,0 -1.00893,0.21315 -0.42631,0.21316 -0.73893,0.56841 -0.29842,0.35526 -0.48315,0.8242 -0.18474,0.46894 -0.24158,0.99472 z m -4.80308,0.71052 q 0,0.59683 0.15632,1.13682 0.15631,0.52578 0.45473,0.92367 0.31262,0.38368 0.78156,0.62525 0.46894,0.22737 1.07998,0.22737 0.83841,0 1.43525,-0.44052 0.59683,-0.44052 0.79577,-1.25051 h 0.95209 q -0.15631,0.52578 -0.4121,0.98051 -0.25578,0.44052 -0.63946,0.78157 -0.38368,0.32684 -0.90946,0.51157 -0.52578,0.18474 -1.22209,0.18474 -0.88103,0 -1.5205,-0.29842 -0.63946,-0.29842 -1.05156,-0.80999 -0.4121,-0.52578 -0.61104,-1.22208 -0.19895,-0.71052 -0.19895,-1.52051 0,-0.80998 0.22737,-1.5205 0.24157,-0.71051 0.66788,-1.23629 0.44052,-0.54 1.06577,-0.83841 0.62526,-0.31263 1.42103,-0.31263 1.52051,0 2.38734,1.05156 0.86682,1.03736 0.85261,3.0268 z m 6.63621,-3.1689 v -0.71051 h 1.09419 v -1.16525 q 0,-0.88104 0.35526,-1.39261 0.35526,-0.51157 1.20788,-0.51157 0.19894,0 0.36946,0.0142 0.17053,0.0142 0.34105,0.0426 v 0.78157 q -0.2842,-0.071 -0.51157,-0.071 -0.32684,0 -0.51157,0.12789 -0.18473,0.11368 -0.27,0.31263 -0.0853,0.19894 -0.11368,0.45473 -0.0142,0.24157 -0.0142,0.49736 v 0.90946 h 1.42103 v 0.71051 h -1.42103 v 6.65042 h -0.85262 v -6.65042 z m 7.61672,6.84937 q -0.71051,-0.0142 -1.33577,-0.25579 -0.61104,-0.24158 -1.07998,-0.72473 -0.45473,-0.48315 -0.72473,-1.20787 -0.26999,-0.72473 -0.26999,-1.69103 0,-0.80998 0.21315,-1.50629 0.21316,-0.71051 0.63947,-1.23629 0.42631,-0.52579 1.06577,-0.8242 0.63946,-0.31263 1.49208,-0.31263 0.86683,0 1.50629,0.31263 0.63947,0.29841 1.06577,0.8242 0.42631,0.51157 0.62526,1.22208 0.21315,0.71052 0.21315,1.5205 0,0.88104 -0.24157,1.59156 -0.24158,0.71051 -0.69631,1.22208 -0.44052,0.51157 -1.07998,0.79578 -0.62525,0.27 -1.39261,0.27 z m 2.50101,-3.87942 q 0,-0.65367 -0.1421,-1.22208 -0.1421,-0.56841 -0.44052,-0.98051 -0.29842,-0.42631 -0.76736,-0.66789 -0.46894,-0.24157 -1.15103,-0.24157 -0.66788,0 -1.15103,0.26999 -0.46894,0.25579 -0.76736,0.69631 -0.29842,0.42631 -0.44052,0.99472 -0.1421,0.5542 -0.1421,1.15103 0,0.6821 0.15631,1.26472 0.17052,0.56841 0.48315,0.98051 0.31263,0.4121 0.78157,0.63946 0.46894,0.22737 1.07998,0.22737 0.66788,0 1.13682,-0.25579 0.48315,-0.26999 0.78157,-0.71051 0.29842,-0.44052 0.44052,-0.99472 0.1421,-0.5542 0.1421,-1.15104 z m 3.36784,3.68047 h -0.85262 v -7.36093 h 0.85262 v 1.37839 h 0.0284 q 0.35526,-0.88103 0.90946,-1.22208 0.56841,-0.35526 1.49208,-0.35526 v 0.92367 q -0.72472,-0.0142 -1.19366,0.22737 -0.46894,0.24157 -0.75315,0.65367 -0.26999,0.4121 -0.38368,0.98051 -0.0995,0.5542 -0.0995,1.16524 z m 9.52088,-3.65205 q 0,-0.66788 -0.17053,-1.23629 -0.15631,-0.58262 -0.46894,-0.99472 -0.31262,-0.42631 -0.78156,-0.66789 -0.46894,-0.24157 -1.06578,-0.24157 -0.53999,0 -0.99472,0.19894 -0.45473,0.18474 -0.79578,0.5542 -0.34104,0.36947 -0.53999,0.90946 -0.18473,0.52578 -0.18473,1.22209 -0.0284,0.6963 0.11368,1.30735 0.14211,0.59683 0.45473,1.05156 0.31263,0.45473 0.79578,0.72472 0.48315,0.25579 1.15103,0.25579 0.58263,0 1.03735,-0.24158 0.46894,-0.25578 0.78157,-0.66788 0.32684,-0.42631 0.49736,-0.98051 0.17053,-0.56841 0.17053,-1.19367 z m 0,-3.70888 h 0.85261 v 6.65042 q 0,0.73893 -0.15631,1.40682 -0.1421,0.68209 -0.52578,1.19366 -0.38368,0.51157 -1.05156,0.80999 -0.66789,0.31262 -1.71945,0.31262 -0.80999,0 -1.39261,-0.21315 -0.58262,-0.19894 -0.95209,-0.51157 -0.36947,-0.31263 -0.56841,-0.69631 -0.18474,-0.36946 -0.19895,-0.6963 h 0.90946 q 0.0995,0.4121 0.31263,0.66788 0.21315,0.27 0.49736,0.4121 0.29842,0.15632 0.65367,0.21316 0.35526,0.0568 0.73894,0.0568 0.86683,0 1.39261,-0.29842 0.52578,-0.29841 0.79578,-0.78156 0.26999,-0.48315 0.34104,-1.0942 0.0853,-0.61104 0.0711,-1.2505 -0.4121,0.68209 -1.13683,1.03735 -0.71051,0.34105 -1.49208,0.34105 -0.83841,0 -1.46366,-0.31263 -0.61104,-0.32684 -1.02314,-0.85262 -0.39789,-0.53999 -0.59684,-1.25051 -0.19894,-0.71051 -0.19894,-1.47787 0,-0.80998 0.18473,-1.5205 0.18474,-0.71051 0.58263,-1.22209 0.4121,-0.52578 1.03735,-0.82419 0.62525,-0.29842 1.5205,-0.29842 0.35526,0 0.72473,0.0995 0.36946,0.0995 0.71051,0.28421 0.35526,0.18473 0.63946,0.46894 0.29842,0.28421 0.48315,0.63946 h 0.0284 z m 8.3272,3.16889 q 0,-0.53999 -0.15631,-1.00893 -0.1421,-0.48315 -0.44052,-0.8242 -0.28421,-0.35525 -0.72473,-0.5542 -0.44051,-0.21315 -1.00893,-0.21315 -0.56841,0 -1.00893,0.21315 -0.42631,0.21316 -0.73893,0.56841 -0.29842,0.35526 -0.48315,0.8242 -0.18474,0.46894 -0.24158,0.99472 z m -4.80308,0.71052 q 0,0.59683 0.15631,1.13682 0.15632,0.52578 0.45473,0.92367 0.31263,0.38368 0.78157,0.62525 0.46894,0.22737 1.07998,0.22737 0.83841,0 1.43524,-0.44052 0.59684,-0.44052 0.79578,-1.25051 h 0.95209 q -0.15631,0.52578 -0.4121,0.98051 -0.25578,0.44052 -0.63946,0.78157 -0.38368,0.32684 -0.90946,0.51157 -0.52578,0.18474 -1.22209,0.18474 -0.88104,0 -1.5205,-0.29842 -0.63946,-0.29842 -1.05156,-0.80999 -0.4121,-0.52578 -0.61104,-1.22208 -0.19895,-0.71052 -0.19895,-1.52051 0,-0.80998 0.22737,-1.5205 0.24157,-0.71051 0.66788,-1.23629 0.44052,-0.54 1.06577,-0.83841 0.62526,-0.31263 1.42103,-0.31263 1.52051,0 2.38733,1.05156 0.86683,1.03736 0.85262,3.0268 z m 7.80145,3.48152 v -1.25051 h 1.03736 v 1.25051 z m 6.45148,0.19895 q -0.71052,-0.0142 -1.33577,-0.25579 -0.61104,-0.24158 -1.07998,-0.72473 -0.45473,-0.48315 -0.72473,-1.20787 -0.26999,-0.72473 -0.26999,-1.69103 0,-0.80998 0.21315,-1.50629 0.21316,-0.71051 0.63946,-1.23629 0.42631,-0.52579 1.06578,-0.8242 0.63946,-0.31263 1.49208,-0.31263 0.86683,0 1.50629,0.31263 0.63946,0.29841 1.06577,0.8242 0.42631,0.51157 0.62526,1.22208 0.21315,0.71052 0.21315,1.5205 0,0.88104 -0.24157,1.59156 -0.24158,0.71051 -0.69631,1.22208 -0.44052,0.51157 -1.07998,0.79578 -0.62526,0.27 -1.39261,0.27 z m 2.50101,-3.87942 q 0,-0.65367 -0.1421,-1.22208 -0.1421,-0.56841 -0.44052,-0.98051 -0.29842,-0.42631 -0.76736,-0.66789 -0.46894,-0.24157 -1.15103,-0.24157 -0.66789,0 -1.15104,0.26999 -0.46894,0.25579 -0.76735,0.69631 -0.29842,0.42631 -0.44052,0.99472 -0.1421,0.5542 -0.1421,1.15103 0,0.6821 0.15631,1.26472 0.17052,0.56841 0.48315,0.98051 0.31263,0.4121 0.78157,0.63946 0.46894,0.22737 1.07998,0.22737 0.66788,0 1.13682,-0.25579 0.48315,-0.26999 0.78157,-0.71051 0.29842,-0.44052 0.44052,-0.99472 0.1421,-0.5542 0.1421,-1.15104 z m 3.36784,3.68047 h -0.85262 v -7.36093 h 0.85262 v 1.37839 h 0.0284 q 0.35526,-0.88103 0.90946,-1.22208 0.56841,-0.35526 1.49208,-0.35526 v 0.92367 q -0.72472,-0.0142 -1.19366,0.22737 -0.46894,0.24157 -0.75315,0.65367 -0.27,0.4121 -0.38368,0.98051 -0.0995,0.5542 -0.0995,1.16524 z m 9.52087,-3.65205 q 0,-0.66788 -0.17052,-1.23629 -0.15631,-0.58262 -0.46894,-0.99472 -0.31263,-0.42631 -0.78157,-0.66789 -0.46894,-0.24157 -1.06577,-0.24157 -0.53999,0 -0.99472,0.19894 -0.45473,0.18474 -0.79578,0.5542 -0.34104,0.36947 -0.53999,0.90946 -0.18473,0.52578 -0.18473,1.22209 -0.0284,0.6963 0.11368,1.30735 0.1421,0.59683 0.45473,1.05156 0.31263,0.45473 0.79578,0.72472 0.48315,0.25579 1.15103,0.25579 0.58262,0 1.03735,-0.24158 0.46894,-0.25578 0.78157,-0.66788 0.32684,-0.42631 0.49736,-0.98051 0.17052,-0.56841 0.17052,-1.19367 z m 0,-3.70888 h 0.85262 v 6.65042 q 0,0.73893 -0.15631,1.40682 -0.1421,0.68209 -0.52578,1.19366 -0.38368,0.51157 -1.05156,0.80999 -0.66789,0.31262 -1.71945,0.31262 -0.80999,0 -1.39261,-0.21315 -0.58262,-0.19894 -0.95209,-0.51157 -0.36947,-0.31263 -0.56841,-0.69631 -0.18474,-0.36946 -0.19895,-0.6963 h 0.90946 q 0.0995,0.4121 0.31263,0.66788 0.21315,0.27 0.49736,0.4121 0.29842,0.15632 0.65367,0.21316 0.35526,0.0568 0.73894,0.0568 0.86683,0 1.39261,-0.29842 0.52578,-0.29841 0.79578,-0.78156 0.26999,-0.48315 0.34104,-1.0942 0.0853,-0.61104 0.071,-1.2505 -0.41209,0.68209 -1.13682,1.03735 -0.71052,0.34105 -1.49208,0.34105 -0.83841,0 -1.46366,-0.31263 -0.61105,-0.32684 -1.02314,-0.85262 -0.39789,-0.53999 -0.59684,-1.25051 -0.19894,-0.71051 -0.19894,-1.47787 0,-0.80998 0.18473,-1.5205 0.18474,-0.71051 0.58263,-1.22209 0.41209,-0.52578 1.03735,-0.82419 0.62525,-0.29842 1.5205,-0.29842 0.35526,0 0.72472,0.0995 0.36947,0.0995 0.71052,0.28421 0.35526,0.18473 0.63946,0.46894 0.29842,0.28421 0.48315,0.63946 h 0.0284 z"
         id="text3"
         transform="scale(1.0070621,0.99298743)"
         aria-label="https://sceneforge.org" />
    </g>
    <path
       style="opacity:0.5;fill:#000000;fill-opacity:1;stroke-width:1;stroke-linecap:round;stroke-linejoin:round;filter:url(#filter5)"
       d="M -0.45033042,162.69233 C 239.46273,60.751202 199.16341,204.20863 313.50302,149.38644 371.72574,121.47051 276.38297,1.7131878 276.38297,1.7131878 l 62.74096,-0.1008696 -0.0315,170.2176318 -339.53592441,0.0244 z"
       id="path5"
       sodipodi:nodetypes="csccccc"
       transform="matrix(1.038318,0,0,1.038318,-9.6269778,-1.6116336)" />
    <path
       style="fill:url(#linearGradient5);fill-opacity:1;stroke:#ffffff;stroke-width:0.26458333;stroke-linecap:round;stroke-linejoin:round;stroke-dasharray:none;stroke-opacity:1;paint-order:stroke fill markers"
       d="M -11.864473,165.90878 C 239.7425,58.998813 197.4789,209.44867 317.39168,151.95432 378.45231,122.67771 278.46232,-2.9168469 278.46232,-2.9168469 l 65.79909,-0.1057862 -0.033,178.5144131 -356.085683,0.0256 z"
       id="path4"
       sodipodi:nodetypes="csccccc" />
    <ellipse
       style="opacity:0.471698;mix-blend-mode:normal;fill:#ffffff;fill-opacity:1;stroke:none;stroke-width:0.247854;stroke-linecap:round;stroke-linejoin:round;stroke-dasharray:none;stroke-opacity:1;filter:url(#filter6)"
       id="path6"
       cx="142.08069"
       cy="138.79971"
       rx="35.385883"
       ry="7.2835808"
       transform="matrix(1.1269589,0,0,0.83555254,-24.437963,27.662432)" />
  </g>
</svg>
