<?xml version="1.0" encoding="UTF-8" standalone="no"?>
<!-- Created with Inkscape (http://www.inkscape.org/) -->

<svg
   width="1280"
   height="260"
   viewBox="0 0 338.66666 68.7921"
   version="1.1"
   id="svg1"
   inkscape:export-filename="repo-card.png"
   inkscape:export-xdpi="96"
   inkscape:export-ydpi="96"
   inkscape:version="1.4-beta (62f545ba, 2024-04-22)"
   sodipodi:docname="site-header-logo-light.svg"
   xmlns:inkscape="http://www.inkscape.org/namespaces/inkscape"
   xmlns:sodipodi="http://sodipodi.sourceforge.net/DTD/sodipodi-0.dtd"
   xmlns="http://www.w3.org/2000/svg"
   xmlns:svg="http://www.w3.org/2000/svg">
  <sodipodi:namedview
     id="namedview1"
     pagecolor="#ffffff"
     bordercolor="#000000"
     borderopacity="0.25"
     inkscape:showpageshadow="2"
     inkscape:pageopacity="0.0"
     inkscape:pagecheckerboard="0"
     inkscape:deskcolor="#d1d1d1"
     inkscape:document-units="px"
     inkscape:zoom="0.78259548"
     inkscape:cx="732.17903"
     inkscape:cy="406.3402"
     inkscape:window-width="2192"
     inkscape:window-height="1288"
     inkscape:window-x="309"
     inkscape:window-y="25"
     inkscape:window-maximized="0"
     inkscape:current-layer="layer1" />
  <defs
     id="defs1" />
  <g
     inkscape:label="Layer 1"
     inkscape:groupmode="layer"
     id="layer1">
    <path
       id="path1"
       style="fill:#000000;stroke-width:0.92029;stroke-linecap:round;stroke-linejoin:round"
       d="M 34.256486 2.8887308 A 31.50742 31.50742 0 0 0 2.7491671 34.39605 A 31.50742 31.50742 0 0 0 34.256486 65.903369 A 31.50742 31.50742 0 0 0 65.763806 34.39605 A 31.50742 31.50742 0 0 0 34.256486 2.8887308 z M 37.1447 4.989391 A 22.84288 22.84288 0 0 1 59.987378 27.832068 A 22.84288 22.84288 0 0 1 37.1447 50.674745 A 22.84288 22.84288 0 0 1 14.302023 27.832068 A 22.84288 22.84288 0 0 1 37.1447 4.989391 z M 102.92766 17.107074 C 99.440585 17.107074 96.69818 17.877503 94.700723 19.418575 C 92.703273 20.959649 91.704504 23.301061 91.704504 26.44248 C 91.704504 27.746468 91.890723 28.902369 92.26313 29.909991 C 92.635528 30.887983 93.210981 31.762052 93.989651 32.532586 C 94.802177 33.273487 95.800927 33.925466 96.985869 34.488551 C 98.170793 35.051637 99.575581 35.570361 101.20063 36.044539 C 102.41941 36.400171 103.43548 36.756032 104.248 37.111664 C 105.09439 37.437661 105.77107 37.807809 106.2789 38.222714 C 106.78673 38.637619 107.14238 39.111928 107.34551 39.645375 C 107.58249 40.149189 107.70104 40.75675 107.70104 41.468014 C 107.70104 42.801636 107.24414 43.794153 106.33006 44.446146 C 105.44982 45.068502 104.45106 45.379945 103.33384 45.379945 C 102.3859 45.379945 101.59015 45.261497 100.94689 45.024409 C 100.33751 44.78732 99.846514 44.461072 99.474105 44.046168 C 99.1017 43.631266 98.847804 43.127346 98.71239 42.534623 C 98.576954 41.912265 98.5093 41.230675 98.5093 40.489773 L 98.5093 39.556491 L 91.196522 39.556491 L 91.196522 40.845826 C 91.196522 43.779794 92.076738 46.031853 93.837204 47.602562 C 95.631528 49.173272 98.59373 49.958506 102.72406 49.958506 C 106.68509 49.958506 109.76637 49.202884 111.96696 47.691446 C 114.2014 46.150372 115.3182 43.705319 115.3182 40.356447 C 115.3182 39.378458 115.21696 38.489582 115.01382 37.68941 C 114.8107 36.889237 114.43826 36.163228 113.89657 35.511234 C 113.38874 34.829607 112.69475 34.207239 111.81451 33.644153 C 110.93429 33.051433 109.80018 32.488289 108.41212 31.95484 L 102.77522 29.821107 C 101.21788 29.258022 100.20232 28.65046 99.728355 27.998467 C 99.254365 27.316839 99.017282 26.487187 99.017282 25.509198 C 99.017282 25.035022 99.068124 24.575519 99.169729 24.130979 C 99.305158 23.686437 99.52496 23.300965 99.829641 22.97497 C 100.16819 22.619337 100.6083 22.338024 101.14998 22.130572 C 101.69167 21.92312 102.36888 21.819477 103.1814 21.819477 C 104.60332 21.819477 105.61888 22.234044 106.22826 23.063854 C 106.83764 23.864026 107.14242 25.019927 107.14242 26.531364 L 114.1503 26.531364 L 114.1503 25.642524 C 114.1503 24.131087 113.86284 22.841933 113.2873 21.775035 C 112.74562 20.678503 111.96665 19.78911 110.951 19.107481 C 109.9692 18.396216 108.78421 17.892297 107.39615 17.595936 C 106.04195 17.26994 104.55271 17.107074 102.92766 17.107074 z M 227.09089 17.729262 L 227.09089 49.469643 L 234.40315 49.469643 L 234.40315 35.689002 L 246.59112 35.689002 L 246.59112 30.443295 L 234.40315 30.443295 L 234.40315 22.97497 L 247.35283 22.97497 L 247.35283 17.729262 L 227.09089 17.729262 z M 31.368272 24.550077 A 11.42144 11.42144 0 0 0 19.946675 35.971674 A 11.42144 11.42144 0 0 0 31.368272 47.392755 A 11.42144 11.42144 0 0 0 42.789869 35.971674 A 11.42144 11.42144 0 0 0 31.368272 24.550077 z M 128.8265 24.930935 C 127.20146 24.930935 125.71171 25.12393 124.3575 25.509198 C 123.0033 25.894467 121.83561 26.576059 120.85381 27.554047 C 119.87201 28.502401 119.11036 29.791554 118.56867 31.421536 C 118.02699 33.021882 117.75579 35.051851 117.75579 37.511642 C 117.75579 39.91216 117.9761 41.927323 118.41622 43.557306 C 118.85633 45.15765 119.49945 46.446805 120.34583 47.424794 C 121.22607 48.373148 122.3093 49.039932 123.59578 49.425201 C 124.91613 49.780833 126.45678 49.958506 128.21723 49.958506 C 131.94131 49.958506 134.59874 49.14366 136.18992 47.513678 C 137.81498 45.85406 138.62752 43.453423 138.62752 40.312005 L 131.92401 40.312005 C 131.92401 42.267983 131.65331 43.690908 131.11165 44.579989 C 130.56996 45.46907 129.70654 45.913249 128.52161 45.913249 C 127.74295 45.913249 127.09983 45.76519 126.592 45.468829 C 126.11802 45.142832 125.74558 44.638912 125.47475 43.957284 C 125.20391 43.275655 125.0177 42.416392 124.91612 41.37913 C 124.81452 40.312233 124.76368 39.037886 124.76368 37.556084 C 124.76368 36.163191 124.81452 34.962872 124.91612 33.955247 C 125.01773 32.917985 125.20394 32.073527 125.47475 31.421536 C 125.74558 30.739907 126.15212 30.235988 126.6938 29.909991 C 127.23549 29.554359 127.9295 29.376687 128.77586 29.376687 C 129.45298 29.376687 129.99432 29.524747 130.40058 29.821107 C 130.80683 30.087831 131.1116 30.45798 131.31474 30.932157 C 131.55171 31.376698 131.70436 31.880618 131.77208 32.443702 C 131.87368 33.006787 131.92453 33.584737 131.92453 34.177457 L 138.62752 34.177457 C 138.62752 31.332397 137.79819 29.080338 136.13928 27.420721 C 134.51425 25.761105 132.07659 24.930935 128.8265 24.930935 z M 152.13582 24.930935 C 149.76599 24.930935 147.8702 25.27199 146.44828 25.953618 C 145.02636 26.635247 143.92584 27.553733 143.14717 28.70954 C 142.40236 29.865345 141.89458 31.184109 141.62374 32.665912 C 141.38676 34.147711 141.2682 35.689085 141.2682 37.289432 C 141.2682 38.800869 141.33589 40.312113 141.47129 41.82355 C 141.64057 43.33499 142.06387 44.698172 142.74099 45.913249 C 143.41808 47.128327 144.46774 48.106556 145.88965 48.847455 C 147.31157 49.588357 149.29181 49.958506 151.83093 49.958506 C 155.18259 49.958506 157.63702 49.232496 159.19435 47.78033 C 160.75168 46.328164 161.59833 44.209359 161.73375 41.423572 L 155.43642 41.423572 C 155.23328 42.93501 154.86084 44.061299 154.31916 44.802199 C 153.77748 45.543101 152.91457 45.913249 151.72964 45.913249 C 151.08638 45.913249 150.54452 45.76519 150.10441 45.468829 C 149.66429 45.142832 149.30863 44.727748 149.0378 44.223936 C 148.76695 43.690489 148.56395 43.097733 148.42853 42.445739 C 148.32694 41.764109 148.27608 41.067711 148.27608 40.356447 L 148.27608 38.444924 L 162.13993 38.444924 L 162.13993 37.067222 C 162.13993 35.229787 162.00459 33.569967 161.73375 32.088166 C 161.46291 30.576727 160.95513 29.302381 160.21032 28.265119 C 159.46551 27.198223 158.43263 26.383377 157.11229 25.820292 C 155.82579 25.227571 154.16714 24.930935 152.13582 24.930935 z M 179.55809 24.930935 C 178.03462 24.930935 176.68072 25.212766 175.49578 25.77585 C 174.31086 26.309299 173.34566 27.168562 172.60085 28.354003 L 172.49956 28.354003 L 172.49956 25.55364 L 165.79606 25.55364 L 165.79606 49.469643 L 172.80446 49.469643 L 172.80446 33.599711 C 172.80446 30.962105 174.0398 29.643339 176.51123 29.643339 C 177.56073 29.643339 178.3224 29.89504 178.79638 30.398853 C 179.27033 30.873029 179.50745 31.732294 179.50745 32.977006 L 179.50745 49.469643 L 186.51534 49.469643 L 186.51534 31.73263 C 186.51534 29.332111 185.90631 27.598263 184.68753 26.531364 C 183.50261 25.464467 181.79254 24.930935 179.55809 24.930935 z M 201.03909 24.930935 C 198.66923 24.930935 196.77345 25.27199 195.35154 25.953618 C 193.92962 26.635247 192.82962 27.553733 192.05095 28.70954 C 191.30614 29.865345 190.79783 31.184109 190.527 32.665912 C 190.29 34.147711 190.17198 35.689085 190.17198 37.289432 C 190.17198 38.800869 190.23965 40.312113 190.37507 41.82355 C 190.54437 43.33499 190.96715 44.698172 191.64425 45.913249 C 192.32135 47.128327 193.37099 48.106556 194.79292 48.847455 C 196.21482 49.588357 198.19559 49.958506 200.73471 49.958506 C 204.08637 49.958506 206.54081 49.232496 208.09813 47.78033 C 209.65547 46.328164 210.5016 44.209359 210.63701 41.423572 L 204.3402 41.423572 C 204.13706 42.93501 203.76462 44.061299 203.22295 44.802199 C 202.68125 45.543101 201.81783 45.913249 200.63291 45.913249 C 199.98966 45.913249 199.4478 45.76519 199.00767 45.468829 C 198.56757 45.142832 198.21242 44.727748 197.94158 44.223936 C 197.67073 43.690489 197.46773 43.097733 197.33231 42.445739 C 197.23073 41.764109 197.17987 41.067711 197.17987 40.356447 L 197.17987 38.444924 L 211.04319 38.444924 L 211.04319 37.067222 C 211.04319 35.229787 210.90786 33.569967 210.63701 32.088166 C 210.36618 30.576727 209.85839 29.302381 209.11358 28.265119 C 208.36876 27.198223 207.33642 26.383377 206.01608 25.820292 C 204.72958 25.227571 203.07039 24.930935 201.03909 24.930935 z M 259.2359 24.930935 C 257.23846 24.930935 255.54569 25.212766 254.15763 25.77585 C 252.80343 26.309299 251.70342 27.109337 250.85703 28.176235 C 250.01066 29.213495 249.40112 30.517455 249.02871 32.088166 C 248.6563 33.658875 248.47008 35.466755 248.47008 37.511642 C 248.47008 39.586164 248.63951 41.423656 248.97807 43.024001 C 249.31662 44.59471 249.89207 45.913477 250.70459 46.980374 C 251.51711 48.017635 252.61712 48.788061 254.00518 49.291875 C 255.39324 49.766051 257.1369 49.988142 259.2359 49.958506 C 261.23336 49.958506 262.90933 49.706803 264.26353 49.202991 C 265.65159 48.699179 266.76891 47.928751 267.61529 46.89149 C 268.46167 45.824593 269.07069 44.505827 269.4431 42.935117 C 269.8155 41.364407 270.00172 39.556528 270.00172 37.511642 C 270.00172 35.407484 269.83282 33.569993 269.49426 31.999282 C 269.15571 30.428573 268.58025 29.109807 267.76774 28.042909 C 266.9552 26.976013 265.85468 26.190779 264.46662 25.686966 C 263.07856 25.153517 261.33492 24.901298 259.2359 24.930935 z M 286.86178 24.930935 C 285.40601 24.930935 284.17014 25.286795 283.15449 25.99806 C 282.13884 26.679689 281.27541 27.598176 280.56445 28.753982 L 280.46316 28.753982 L 280.46316 25.55364 L 273.75966 25.55364 L 273.75966 49.469643 L 280.76806 49.469643 L 280.76806 35.111256 C 280.76806 34.311083 280.92018 33.644296 281.22488 33.110849 C 281.52958 32.547764 281.9356 32.103069 282.44342 31.777072 C 282.95123 31.421439 283.50989 31.16922 284.11929 31.021041 C 284.72869 30.87286 285.33823 30.798831 285.94762 30.798831 C 286.32003 30.798831 286.67569 30.81364 287.01423 30.843273 C 287.38663 30.843273 287.75908 30.858082 288.13148 30.887715 L 288.13148 25.019819 C 287.92836 24.990186 287.70804 24.975377 287.47105 24.975377 C 287.26793 24.945744 287.06491 24.930935 286.86178 24.930935 z M 298.69421 24.930935 C 296.79832 24.930935 295.27498 25.301601 294.12392 26.042502 C 293.0067 26.783403 292.14326 27.746308 291.53388 28.93175 C 290.95834 30.087553 290.56911 31.391514 290.36598 32.84368 C 290.19671 34.295846 290.11173 35.71877 290.11173 37.111664 C 290.11173 41.468162 290.80571 44.580002 292.19379 46.44707 C 293.61568 48.284505 295.715 49.202991 298.49112 49.202991 C 299.60833 49.202991 300.67477 48.936483 301.69043 48.403035 C 302.73995 47.869586 303.62015 47.157866 304.33111 46.268785 L 304.43239 46.268785 L 304.43239 49.425201 C 304.43239 50.610641 304.14493 51.603676 303.56939 52.40385 C 302.99385 53.204023 301.99509 53.603784 300.57317 53.603784 C 300.13307 53.603784 299.70974 53.544561 299.30348 53.426016 C 298.93107 53.30747 298.57543 53.144599 298.23687 52.937154 C 297.5259 52.492609 297.17078 51.88505 297.17078 51.114515 L 290.46727 51.114515 C 290.46727 53.159399 291.26304 54.729867 292.85422 55.826401 C 294.47927 56.952581 296.78105 57.515715 299.7603 57.515715 C 303.85677 57.515715 306.76861 56.745299 308.49522 55.204213 C 310.25569 53.663142 311.1359 51.351338 311.1359 48.269192 L 311.1359 25.55364 L 304.43239 25.55364 L 304.43239 28.220677 L 304.33111 28.220677 C 303.65401 26.975963 302.79058 26.116699 301.74107 25.642524 C 300.69155 25.168348 299.676 24.930935 298.69421 24.930935 z M 325.91339 24.930935 C 323.54351 24.930935 321.64775 25.271991 320.22585 25.953618 C 318.80395 26.635248 317.70341 27.553734 316.92473 28.70954 C 316.17993 29.865345 315.67215 31.184109 315.4013 32.665912 C 315.16432 34.147712 315.04577 35.689085 315.04577 37.289432 C 315.04577 38.800868 315.11342 40.312113 315.24886 41.82355 C 315.41813 43.334989 315.84146 44.698171 316.51855 45.913249 C 317.19567 47.128326 318.24533 48.106555 319.66722 48.847455 C 321.08913 49.588356 323.06935 49.958506 325.6085 49.958506 C 328.96014 49.958506 331.41509 49.232496 332.97243 47.78033 C 334.52976 46.328164 335.37589 44.209359 335.51131 41.423572 L 329.2145 41.423572 C 329.01137 42.93501 328.63893 44.061299 328.09725 44.802199 C 327.55556 45.543101 326.69214 45.913249 325.50721 45.913249 C 324.86398 45.913249 324.3221 45.76519 323.88198 45.468829 C 323.44186 45.142832 323.08671 44.727748 322.81588 44.223936 C 322.54504 43.690489 322.34151 43.097733 322.2061 42.445739 C 322.1045 41.76411 322.05365 41.067712 322.05365 40.356447 L 322.05365 38.444924 L 335.91749 38.444924 L 335.91749 37.067222 C 335.91749 35.229787 335.78214 33.569967 335.51131 32.088166 C 335.24047 30.576727 334.73268 29.302381 333.98788 28.265119 C 333.24306 27.198223 332.21019 26.383376 330.88986 25.820292 C 329.60335 25.227571 327.94468 24.930935 325.91339 24.930935 z M 151.88209 29.109518 C 152.59305 29.109518 153.16849 29.243289 153.60861 29.510013 C 154.08258 29.747101 154.43772 30.117251 154.6747 30.621063 C 154.94555 31.09524 155.13176 31.687997 155.23333 32.39926 C 155.33492 33.080889 155.40259 33.880929 155.43642 34.799645 L 148.27608 34.799645 L 148.27608 33.866363 C 148.27608 33.303278 148.32693 32.740134 148.42853 32.17705 C 148.56394 31.613965 148.76695 31.110046 149.0378 30.665505 C 149.30863 30.19133 149.6643 29.821177 150.10441 29.554455 C 150.57838 29.258094 151.17113 29.109518 151.88209 29.109518 z M 200.78536 29.109518 C 201.49631 29.109518 202.07175 29.243289 202.51188 29.510013 C 202.98584 29.747101 203.34151 30.117251 203.57848 30.621063 C 203.84934 31.09524 204.03556 31.687997 204.13711 32.39926 C 204.23872 33.080889 204.30637 33.880929 204.3402 34.799645 L 197.17987 34.799645 L 197.17987 33.866363 C 197.17987 33.303278 197.23073 32.740134 197.33231 32.17705 C 197.46773 31.613965 197.67072 31.110046 197.94158 30.665505 C 198.21241 30.19133 198.56808 29.821177 199.00819 29.554455 C 199.48218 29.258094 200.0744 29.109518 200.78536 29.109518 z M 259.2359 29.109518 C 260.65783 29.109518 261.63981 29.761499 262.18148 31.065483 C 262.72315 32.369467 262.99384 34.518401 262.99384 37.511642 C 262.99384 40.504881 262.72315 42.653298 262.18148 43.957284 C 261.63981 45.26127 260.65783 45.913249 259.2359 45.913249 C 258.38954 45.913249 257.71232 45.705966 257.20449 45.291061 C 256.69665 44.876156 256.30743 44.298206 256.03659 43.557306 C 255.79961 42.816404 255.64749 41.927529 255.57977 40.890268 C 255.51211 39.853007 255.47797 38.726717 255.47797 37.511642 C 255.47797 36.296564 255.51211 35.170275 255.57977 34.133015 C 255.64743 33.095753 255.79956 32.206878 256.03659 31.465978 C 256.30743 30.725076 256.69665 30.147127 257.20449 29.732223 C 257.71232 29.31732 258.38954 29.109518 259.2359 29.109518 z M 325.65966 29.109518 C 326.37063 29.109518 326.94608 29.24329 327.38618 29.510013 C 327.86016 29.747101 328.2158 30.117251 328.45279 30.621063 C 328.72362 31.09524 328.90984 31.687997 329.01141 32.39926 C 329.113 33.08089 329.18067 33.880929 329.2145 34.799645 L 322.05365 34.799645 L 322.05365 33.866363 C 322.05365 33.303279 322.1045 32.740135 322.2061 32.17705 C 322.34152 31.613965 322.54504 31.110046 322.81588 30.665505 C 323.08671 30.191328 323.44186 29.821177 323.88198 29.554455 C 324.35595 29.258095 324.9487 29.109518 325.65966 29.109518 z M 300.77626 29.643339 C 302.16432 29.643339 303.11222 30.2509 303.62004 31.465978 C 304.16172 32.681055 304.43239 34.740636 304.43239 37.644968 C 304.43239 38.652593 304.36472 39.585887 304.22931 40.445331 C 304.12771 41.275139 303.92471 41.986343 303.62004 42.579065 C 303.34919 43.171785 302.95945 43.646093 302.45162 44.001726 C 301.97766 44.327722 301.36862 44.490588 300.62382 44.490588 C 299.87901 44.490588 299.26945 44.327722 298.79549 44.001726 C 298.35537 43.646093 297.99974 43.187109 297.72889 42.624023 C 297.49191 42.031303 297.32299 41.363999 297.22142 40.623099 C 297.15376 39.882199 297.11962 39.096965 297.11962 38.267156 C 297.11962 36.66681 297.15376 35.318433 297.22142 34.221899 C 297.32301 33.09573 297.50923 32.206855 297.78005 31.554862 C 298.0509 30.873233 298.42334 30.384118 298.8973 30.087759 C 299.37127 29.791398 299.9976 29.643339 300.77626 29.643339 z " />
  </g>
</svg>
