<?xml version="1.0" encoding="UTF-8" standalone="no"?>
<!-- Created with Inkscape (http://www.inkscape.org/) -->

<svg
   width="1024"
   height="1024"
   viewBox="0 0 270.93333 270.93333"
   version="1.1"
   id="svg1"
   xml:space="preserve"
   inkscape:export-filename="icon-1024-full.png"
   inkscape:export-xdpi="96"
   inkscape:export-ydpi="96"
   sodipodi:docname="icon.svg"
   inkscape:version="1.4-beta (62f545ba, 2024-04-22)"
   xmlns:inkscape="http://www.inkscape.org/namespaces/inkscape"
   xmlns:sodipodi="http://sodipodi.sourceforge.net/DTD/sodipodi-0.dtd"
   xmlns:xlink="http://www.w3.org/1999/xlink"
   xmlns="http://www.w3.org/2000/svg"
   xmlns:svg="http://www.w3.org/2000/svg"><sodipodi:namedview
     id="namedview1"
     pagecolor="#ffffff"
     bordercolor="#000000"
     borderopacity="0.25"
     inkscape:showpageshadow="2"
     inkscape:pageopacity="0.0"
     inkscape:pagecheckerboard="0"
     inkscape:deskcolor="#d1d1d1"
     inkscape:document-units="mm"
     inkscape:zoom="0.9155406"
     inkscape:cx="731.26195"
     inkscape:cy="536.8413"
     inkscape:window-width="2128"
     inkscape:window-height="1365"
     inkscape:window-x="309"
     inkscape:window-y="25"
     inkscape:window-maximized="0"
     inkscape:current-layer="layer1" /><defs
     id="defs1"><linearGradient
       id="linearGradient9"
       inkscape:collect="always"><stop
         style="stop-color:#d03a94;stop-opacity:1;"
         offset="0"
         id="stop9" /><stop
         style="stop-color:#b63abf;stop-opacity:1;"
         offset="1"
         id="stop10" /></linearGradient><linearGradient
       inkscape:collect="always"
       xlink:href="#linearGradient9"
       id="linearGradient10"
       x1="79.599426"
       y1="50.783863"
       x2="213.12103"
       y2="223.10663"
       gradientUnits="userSpaceOnUse"
       gradientTransform="matrix(1.7079768,0,0,1.7079769,-95.907248,-95.907254)" /><filter
       inkscape:collect="always"
       style="color-interpolation-filters:sRGB"
       id="filter10"
       x="-0.10549182"
       y="-0.10549182"
       width="1.2109836"
       height="1.2109836"><feGaussianBlur
         inkscape:collect="always"
         stdDeviation="3.0097089"
         id="feGaussianBlur10" /></filter><filter
       inkscape:collect="always"
       style="color-interpolation-filters:sRGB"
       id="filter11"
       x="-0.78464991"
       y="-0.78464991"
       width="2.5692998"
       height="2.5692998"><feGaussianBlur
         inkscape:collect="always"
         stdDeviation="13.058654"
         id="feGaussianBlur11" /></filter></defs><g
     inkscape:label="Layer 1"
     inkscape:groupmode="layer"
     id="layer1"><g
       id="g4"><path
         id="rect2"
         style="fill:#000000;fill-opacity:1;stroke-width:0.270459;stroke-linecap:round;stroke-linejoin:round;paint-order:stroke fill markers"
         d="m 46.470032,5.4668498 c -0.55592,0 -1.003557,0.4471202 -1.003557,1.0030395 V 264.46344 c 0,0.55592 0.447637,1.00304 1.003557,1.00304 H 224.4633 c 0.55592,0 1.00356,-0.44712 1.00356,-1.00304 V 52.912533 L 178.02066,5.4668498 Z m 1.485697,1.5492594 H 176.67015 c 0,0 0.89852,0.1560533 1.15653,0.4849579 0.25581,0.3261002 0.19398,1.2281745 0.19398,1.2281745 V 52.454163 c 0,0.126948 0.051,0.241688 0.13384,0.324528 h 5.2e-4 c 0.0828,0.08284 0.19706,0.133856 0.32401,0.133842 h 44.2601 c 0,0 0.70723,0.06021 0.93534,0.294295 0.24864,0.255161 0.29429,1.027501 0.29429,1.027501 V 262.92607 c 0,0.54929 -0.44186,0.99115 -0.99116,0.99115 H 47.955729 c -0.549294,0 -0.991154,-0.44186 -0.991154,-0.99115 V 8.0072632 c 0,-0.5492943 0.44186,-0.991154 0.991154,-0.991154 z"
         sodipodi:nodetypes="ssssssccsscacsccccacssssss" /><path
         id="path4"
         style="fill:#cb3a9d;fill-opacity:1;stroke-width:0.106398;stroke-linecap:round;stroke-linejoin:round;paint-order:stroke fill markers"
         d="m 179.82121,51.112295 c 0.0728,0.07295 0.17387,0.117858 0.28563,0.117846 l 41.372,2e-6 -41.77563,-41.775643 1.3e-4,41.372138 c 0,0.111776 0.0448,0.212718 0.11777,0.285657 z" /></g><rect
       style="fill:url(#linearGradient10);fill-opacity:1;stroke-width:1.70798;stroke-linecap:round;stroke-linejoin:round"
       id="rect1"
       width="270.93332"
       height="270.93332"
       x="0"
       y="0"
       ry="0" /><circle
       style="opacity:0.493261;mix-blend-mode:normal;fill:#ffffff;fill-opacity:1;stroke-width:1;stroke-linecap:round;stroke-linejoin:round;filter:url(#filter11)"
       id="path11"
       cx="176.60231"
       cy="102.99423"
       r="19.97118"
       transform="matrix(1.6171777,0,0,1.6171777,-99.294711,-81.2545)" /><g
       id="g11"
       transform="matrix(1.5939939,0,0,1.5939939,-80.466375,-80.466375)"><circle
         style="opacity:0.493261;fill:#000000;stroke-width:1;stroke-linecap:round;stroke-linejoin:round;filter:url(#filter10)"
         id="circle10"
         cx="135.46666"
         cy="135.46666"
         r="34.236309" /><circle
         style="fill:#000000;stroke-width:1;stroke-linecap:round;stroke-linejoin:round"
         id="path1"
         cx="135.46666"
         cy="135.46666"
         r="34.236309" /><circle
         style="fill:#ffffff;fill-opacity:1;stroke-width:1;stroke-linecap:round;stroke-linejoin:round"
         id="path2"
         cx="138.60498"
         cy="128.33411"
         r="24.821325" /><circle
         style="fill:#000000;fill-opacity:1;stroke-width:0.5;stroke-linecap:round;stroke-linejoin:round"
         id="circle11"
         cx="132.32832"
         cy="137.17848"
         r="12.410663" /></g><rect
       style="opacity:0.493261;fill:none;fill-opacity:1;stroke-width:1.02991;stroke-linecap:round;stroke-linejoin:round"
       id="rect11"
       width="135.46666"
       height="135.46666"
       x="67.733337"
       y="67.733337"
       ry="0"
       inkscape:export-filename="512.png"
       inkscape:export-xdpi="96"
       inkscape:export-ydpi="96" /></g></svg>
