<?xml version="1.0" encoding="UTF-8" standalone="no"?>
<!-- Created with Inkscape (http://www.inkscape.org/) -->

<svg
   width="260"
   height="260"
   viewBox="0 0 68.791711 68.7921"
   version="1.1"
   id="svg1"
   inkscape:export-filename="repo-card.png"
   inkscape:export-xdpi="96"
   inkscape:export-ydpi="96"
   inkscape:version="1.4-beta (62f545ba, 2024-04-22)"
   sodipodi:docname="logo.svg"
   xmlns:inkscape="http://www.inkscape.org/namespaces/inkscape"
   xmlns:sodipodi="http://sodipodi.sourceforge.net/DTD/sodipodi-0.dtd"
   xmlns="http://www.w3.org/2000/svg"
   xmlns:svg="http://www.w3.org/2000/svg">
  <sodipodi:namedview
     id="namedview1"
     pagecolor="#ffffff"
     bordercolor="#000000"
     borderopacity="0.25"
     inkscape:showpageshadow="2"
     inkscape:pageopacity="0.0"
     inkscape:pagecheckerboard="0"
     inkscape:deskcolor="#d1d1d1"
     inkscape:document-units="px"
     inkscape:zoom="0.78259548"
     inkscape:cx="732.17903"
     inkscape:cy="406.3402"
     inkscape:window-width="2192"
     inkscape:window-height="1288"
     inkscape:window-x="309"
     inkscape:window-y="25"
     inkscape:window-maximized="0"
     inkscape:current-layer="layer1" />
  <defs
     id="defs1" />
  <g
     inkscape:label="Layer 1"
     inkscape:groupmode="layer"
     id="layer1">
    <path
       id="path1"
       style="fill:#000000;stroke-width:1.00466;stroke-linecap:round;stroke-linejoin:round"
       d="M 34.395856 0 A 34.396049 34.396049 0 0 0 -0.0001945 34.39605 A 34.396049 34.396049 0 0 0 34.395856 68.7921 A 34.396049 34.396049 0 0 0 68.791905 34.39605 A 34.396049 34.396049 0 0 0 34.395856 0 z M 37.548654 2.2928977 A 24.937136 24.937136 0 0 1 62.485791 27.230034 A 24.937136 24.937136 0 0 1 37.548654 52.16717 A 24.937136 24.937136 0 0 1 12.611518 27.230034 A 24.937136 24.937136 0 0 1 37.548654 2.2928977 z M 31.243057 23.647284 A 12.468568 12.468568 0 0 0 18.774488 36.115853 A 12.468568 12.468568 0 0 0 31.243057 48.584421 A 12.468568 12.468568 0 0 0 43.711625 36.115853 A 12.468568 12.468568 0 0 0 31.243057 23.647284 z " />
  </g>
</svg>
