<?xml version="1.0" encoding="UTF-8" standalone="no"?>
<!-- Created with Inkscape (http://www.inkscape.org/) -->

<svg
   width="1280"
   height="260"
   viewBox="0 0 338.66666 68.7921"
   version="1.1"
   id="svg1"
   inkscape:export-filename="repo-card.png"
   inkscape:export-xdpi="96"
   inkscape:export-ydpi="96"
   inkscape:version="1.4-beta (62f545ba, 2024-04-22)"
   sodipodi:docname="site-named-logo.svg"
   xmlns:inkscape="http://www.inkscape.org/namespaces/inkscape"
   xmlns:sodipodi="http://sodipodi.sourceforge.net/DTD/sodipodi-0.dtd"
   xmlns="http://www.w3.org/2000/svg"
   xmlns:svg="http://www.w3.org/2000/svg">
  <sodipodi:namedview
     id="namedview1"
     pagecolor="#ffffff"
     bordercolor="#000000"
     borderopacity="0.25"
     inkscape:showpageshadow="2"
     inkscape:pageopacity="0.0"
     inkscape:pagecheckerboard="0"
     inkscape:deskcolor="#d1d1d1"
     inkscape:document-units="px"
     inkscape:zoom="0.78259548"
     inkscape:cx="732.81793"
     inkscape:cy="406.3402"
     inkscape:window-width="2192"
     inkscape:window-height="1288"
     inkscape:window-x="309"
     inkscape:window-y="50"
     inkscape:window-maximized="0"
     inkscape:current-layer="layer1" />
  <defs
     id="defs1">
    <filter
       inkscape:collect="always"
       style="color-interpolation-filters:sRGB"
       id="filter11"
       x="-0.78464991"
       y="-0.78464991"
       width="2.5692998"
       height="2.5692998">
      <feGaussianBlur
         inkscape:collect="always"
         stdDeviation="13.058654"
         id="feGaussianBlur11" />
    </filter>
  </defs>
  <g
     inkscape:label="Layer 1"
     inkscape:groupmode="layer"
     id="layer1">
    <circle
       style="opacity:0.493261;mix-blend-mode:normal;fill:#ffffff;fill-opacity:1;stroke-width:1;stroke-linecap:round;stroke-linejoin:round;filter:url(#filter11)"
       id="path11"
       cx="176.60231"
       cy="102.99423"
       r="19.97118"
       transform="matrix(1.0150951,0,0,1.0150951,-84.947204,-49.754316)" />
    <g
       id="g2"
       transform="matrix(1.0694555,0,0,1.0694555,-9.6814186,-56.151181)">
      <g
         id="g1"
         transform="matrix(0.86005752,0,0,0.86005752,-15.02243,18.24545)">
        <circle
           style="fill:#000000;stroke-width:1.00054;stroke-linecap:round;stroke-linejoin:round"
           id="path1"
           cx="65.236145"
           cy="77.228806"
           r="34.254894" />
        <circle
           style="fill:#ffffff;fill-opacity:1;stroke-width:1.00054;stroke-linecap:round;stroke-linejoin:round"
           id="path2"
           cx="68.376175"
           cy="70.092384"
           r="24.834799" />
        <circle
           style="fill:#000000;fill-opacity:1;stroke-width:0.500271;stroke-linecap:round;stroke-linejoin:round"
           id="circle11"
           cx="62.096107"
           cy="78.941559"
           r="12.417399" />
      </g>
      <path
         style="-inkscape-font-specification:'Helvetica Neue Bold Condensed';fill:#000000;stroke-width:6.29677;stroke-linecap:round;stroke-linejoin:round"
         d="m 101.16433,89.491912 h -6.837783 v 1.205443 q 0,4.115133 2.469201,6.318183 2.516687,2.20305 8.309812,2.20305 5.55568,0 8.64218,-2.119916 3.13399,-2.161484 3.13399,-6.858554 0,-1.371711 -0.28492,-2.494019 -0.2849,-1.122309 -1.04466,-2.036784 -0.71227,-0.956039 -1.94687,-1.745813 -1.23459,-0.83134 -3.18146,-1.579546 l -5.27078,-1.995215 q -2.1843,-0.789773 -2.84907,-1.704247 -0.66481,-0.956041 -0.66481,-2.327752 0,-0.665071 0.14251,-1.288576 0.18995,-0.623506 0.61729,-1.080742 0.47485,-0.498804 1.23461,-0.789773 0.75976,-0.290969 1.89938,-0.290969 1.99437,0 2.84908,1.163876 0.85472,1.122309 0.85472,3.242225 h 6.55287 v -0.83134 q 0,-2.119915 -0.80723,-3.616328 -0.75975,-1.537978 -2.18429,-2.494019 -1.37705,-0.997608 -3.32392,-1.413279 -1.89938,-0.457236 -4.17865,-0.457236 -4.89091,0 -7.69251,2.161482 -2.801589,2.161483 -2.801589,6.567584 0,1.828951 0.522332,3.242224 0.522319,1.371715 1.614468,2.452453 1.139635,1.039175 2.801615,1.828949 1.661954,0.789775 3.941214,1.454848 1.70944,0.498803 2.84907,0.997606 1.18712,0.457238 1.89939,1.039177 0.71227,0.581938 0.99717,1.330141 0.33239,0.706641 0.33239,1.704248 0,1.870515 -1.28208,2.784989 -1.23461,0.872906 -2.80159,0.872906 -1.32956,0 -2.23178,-0.332535 -0.85471,-0.332537 -1.37704,-0.914475 -0.52233,-0.581935 -0.71226,-1.413278 -0.18996,-0.872908 -0.18996,-1.912084 z m 31.24479,-5.029608 h 6.26798 q 0,-3.990432 -2.32676,-6.318182 -2.27924,-2.32775 -6.83775,-2.32775 -2.27927,0 -4.17866,0.54037 -1.89938,0.540372 -3.27643,1.912082 -1.37705,1.330144 -2.13682,3.616329 -0.75974,2.244618 -0.75974,5.694678 0,3.366926 0.6173,5.653111 0.6173,2.244616 1.80441,3.616328 1.23461,1.330144 3.03901,1.870516 1.85189,0.498802 4.32108,0.498802 5.22332,0 7.45509,-2.286184 2.27927,-2.327751 2.27927,-6.733851 h -6.26798 q 0,2.743421 -0.75973,3.99043 -0.75977,1.24701 -2.42172,1.24701 -1.09214,0 -1.80441,-0.41567 -0.66479,-0.457238 -1.04466,-1.413278 -0.37988,-0.956041 -0.52234,-2.410886 -0.14251,-1.496412 -0.14251,-3.574763 0,-1.953647 0.14251,-3.366924 0.14251,-1.454847 0.52234,-2.369319 0.37987,-0.956041 1.13962,-1.413279 0.75976,-0.498803 1.94685,-0.498803 0.94971,0 1.51953,0.41567 0.5698,0.374102 0.85472,1.039174 0.33238,0.623506 0.42736,1.413278 0.1425,0.789773 0.1425,1.621113 z m 21.98534,0.581939 h -6.69533 v -0.872907 q 0,-0.789774 0.1425,-1.579546 0.18993,-0.789774 0.56982,-1.41328 0.37986,-0.66507 0.99716,-1.039171 0.66479,-0.41567 1.66197,-0.41567 0.99718,0 1.61448,0.374101 0.66478,0.332537 0.99716,1.039175 0.37989,0.665073 0.52234,1.662679 0.1425,0.956041 0.18994,2.244617 z m -6.69533,3.408494 h 12.96328 V 87.16416 q 0,-2.577155 -0.37988,-4.655503 -0.37988,-2.119919 -1.42454,-3.574764 -1.04466,-1.49641 -2.89653,-2.286183 -1.80443,-0.83134 -4.65352,-0.83134 -3.32389,0 -5.31825,0.95604 -1.99435,0.956041 -3.0865,2.577155 -1.04466,1.621113 -1.42453,3.699464 -0.33238,2.078347 -0.33238,4.322965 0,2.119917 0.18991,4.239833 0.23743,2.119919 1.18714,3.824165 0.94968,1.704248 2.94403,2.743421 1.99436,1.039175 5.55569,1.039175 4.70098,0 6.88526,-2.036782 2.18429,-2.036783 2.37422,-5.94408 h -5.88807 q -0.28492,2.119917 -1.04466,3.159091 -0.75976,1.039176 -2.42172,1.039176 -0.90222,0 -1.51951,-0.41567 -0.6173,-0.457238 -0.99716,-1.163876 -0.37989,-0.748204 -0.56983,-1.66268 -0.14249,-0.956043 -0.14249,-1.953649 z m 16.38214,-12.05443 v 22.363044 h 6.55287 V 83.921933 q 0,-3.699461 3.46638,-3.699461 1.47201,0 2.13681,0.706639 0.66476,0.665071 0.66476,2.410884 v 15.421356 h 6.55287 V 82.176122 q 0,-3.366927 -1.70944,-4.863341 -1.66195,-1.496412 -4.79594,-1.496412 -2.1368,0 -3.79877,0.789772 -1.66195,0.748206 -2.70661,2.410886 h -0.0949 v -2.618721 z m 36.04071,8.645936 h -6.69534 v -0.872907 q 0,-0.789774 0.14249,-1.579546 0.18993,-0.789774 0.56983,-1.41328 0.37986,-0.66507 0.99715,-1.039171 0.66481,-0.41567 1.66198,-0.41567 0.99717,0 1.61448,0.374101 0.66478,0.332537 0.99716,1.039175 0.3799,0.665073 0.52233,1.662679 0.14251,0.956041 0.18995,2.244617 z m -6.69534,3.408494 h 12.96328 V 87.16416 q 0,-2.577155 -0.37988,-4.655503 -0.37987,-2.119919 -1.42453,-3.574764 -1.04467,-1.49641 -2.89657,-2.286183 -1.80441,-0.83134 -4.65348,-0.83134 -3.32391,0 -5.31826,0.95604 -1.99436,0.956041 -3.08651,2.577155 -1.04466,1.621113 -1.42452,3.699464 -0.33242,2.078347 -0.33242,4.322965 0,2.119917 0.18995,4.239833 0.23744,2.119919 1.18713,3.824165 0.94968,1.704248 2.94405,2.743421 1.99434,1.039175 5.55568,1.039175 4.70097,0 6.88525,-2.036782 2.1843,-2.036783 2.37423,-5.94408 h -5.88806 q -0.28492,2.119917 -1.04467,3.159091 -0.75977,1.039176 -2.42171,1.039176 -0.90222,0 -1.51953,-0.41567 -0.61729,-0.457238 -0.99716,-1.163876 -0.37989,-0.748204 -0.56983,-1.66268 -0.14248,-0.956043 -0.14248,-1.953649 z M 221.395,69.08252 v 29.678831 h 6.83777 V 85.875583 h 11.3963 v -4.904905 h -11.3963 v -6.983256 h 12.10855 V 69.08252 Z m 26.54382,18.497311 q 0,-1.704248 0.0949,-3.159091 0.0949,-1.454846 0.42736,-2.49402 0.37988,-1.039176 1.09216,-1.621114 0.71228,-0.581935 1.89937,-0.581935 1.99437,0 2.7541,1.828945 0.75975,1.828946 0.75975,6.027214 0,4.198266 -0.75975,6.027214 -0.75973,1.828948 -2.7541,1.828948 -1.18709,0 -1.89937,-0.581939 -0.71228,-0.581938 -1.09216,-1.621112 -0.33238,-1.039176 -0.42736,-2.494021 -0.0949,-1.454845 -0.0949,-3.159089 z m -6.55289,0 q 0,2.90969 0.47486,5.154307 0.47485,2.203049 1.61447,3.699461 1.13964,1.454845 3.08651,2.161486 1.94687,0.66507 4.89089,0.623503 2.8016,0 4.70098,-0.706638 1.94686,-0.706639 3.13398,-2.161484 1.18712,-1.496411 1.70945,-3.699462 0.52233,-2.203051 0.52233,-5.071173 0,-2.951256 -0.47486,-5.154308 -0.47484,-2.20305 -1.61446,-3.699463 -1.13964,-1.49641 -3.0865,-2.203049 -1.94688,-0.748207 -4.89092,-0.706639 -2.80158,0 -4.74845,0.789772 -1.89937,0.748206 -3.0865,2.244619 -1.18711,1.454842 -1.70944,3.657895 -0.52234,2.20305 -0.52234,5.071173 z m 23.6473,-11.181522 v 22.363043 h 6.55287 v -13.42614 q 0,-1.122309 0.42737,-1.870513 0.42736,-0.789773 1.13962,-1.247011 0.71225,-0.498805 1.567,-0.706639 0.85472,-0.207835 1.70944,-0.207835 0.52233,0 0.99716,0.04156 0.52233,0 1.04465,0.04156 V 75.89949 q -0.28489,-0.04156 -0.61729,-0.04156 -0.2849,-0.04156 -0.5698,-0.04156 -2.04184,0 -3.46638,0.997609 -1.42454,0.95604 -2.42172,2.577153 h -0.0949 v -2.992825 z m 21.84282,11.888161 q 0,-2.244618 0.0949,-3.782598 0.14249,-1.579546 0.52233,-2.494019 0.37989,-0.956041 1.04466,-1.37171 0.66479,-0.41567 1.75693,-0.41567 1.94687,0 2.65913,1.704247 0.75976,1.704246 0.75976,5.777812 0,1.413278 -0.18993,2.61872 -0.1425,1.163875 -0.56983,1.995216 -0.37988,0.83134 -1.09215,1.330144 -0.66478,0.457237 -1.70943,0.457237 -1.04466,0 -1.70942,-0.457237 -0.61732,-0.498804 -0.99721,-1.288578 -0.33239,-0.83134 -0.47484,-1.870513 -0.0949,-1.039175 -0.0949,-2.203051 z m 13.10574,-11.888161 h -6.26795 v 2.49402 h -0.0949 q -0.94969,-1.745816 -2.42171,-2.410886 -1.47204,-0.665071 -2.84909,-0.665071 -2.65913,0 -4.2736,1.039175 -1.56699,1.039174 -2.42171,2.701855 -0.80724,1.62111 -1.09215,3.657894 -0.23742,2.036782 -0.23742,3.990431 0,6.11035 1.94688,8.729068 1.99433,2.577155 5.88807,2.577155 1.56698,0 2.99152,-0.748205 1.47204,-0.748207 2.46921,-1.995217 h 0.0949 v 2.951255 q 0,1.662677 -0.80724,2.784987 -0.80724,1.12231 -2.8016,1.12231 -0.61728,0 -1.1871,-0.16627 -0.52233,-0.16627 -0.99719,-0.45723 -0.99719,-0.62351 -0.99719,-1.70425 h -6.26794 q 0,2.86812 2.23176,4.4061 2.27927,1.57956 6.45791,1.57956 5.74563,0 8.16734,-2.1615 2.4692,-2.16148 2.4692,-6.484446 z m 16.9044,8.645935 h -6.69532 v -0.872907 q 0,-0.789773 0.1425,-1.579546 0.18994,-0.789773 0.56982,-1.413279 0.37986,-0.665072 0.99716,-1.039172 0.66479,-0.415669 1.66197,-0.415669 0.9972,0 1.61447,0.3741 0.66479,0.332537 0.99719,1.039175 0.37986,0.665073 0.52233,1.662679 0.14248,0.956042 0.18993,2.244618 z m -6.69532,3.408494 h 12.96327 v -1.288576 q 0,-2.577155 -0.37986,-4.655504 -0.37988,-2.119919 -1.42452,-3.574764 -1.04468,-1.49641 -2.89656,-2.286182 -1.80443,-0.83134 -4.65349,-0.83134 -3.32395,0 -5.31828,0.956039 -1.99434,0.956042 -3.0865,2.577155 -1.04465,1.621113 -1.42454,3.699464 -0.33239,2.078347 -0.33239,4.322966 0,2.119916 0.18996,4.239832 0.23742,2.119918 1.1871,3.824165 0.94971,1.704247 2.94404,2.743421 1.99435,1.039174 5.55571,1.039174 4.70096,0 6.88526,-2.036782 2.18428,-2.036783 2.37423,-5.94408 h -5.8881 q -0.2849,2.119917 -1.04465,3.159091 -0.75977,1.039176 -2.42173,1.039176 -0.90219,0 -1.51949,-0.41567 -0.61731,-0.457238 -0.99717,-1.163876 -0.37988,-0.748204 -0.56981,-1.66268 -0.1425,-0.956041 -0.1425,-1.953649 z"
         id="text1"
         aria-label="Scene Forge" />
    </g>
  </g>
</svg>
